<svg width="100%" height="100%" viewBox="0 0 714 515" fill="none" xmlns="http://www.w3.org/2000/svg">
<g clip-path="url(#clip0_8_7)">
<path opacity="0.85" d="M414.846 90.8246C369.073 89.2323 325.442 74.4403 283.843 58.26C242.244 42.0797 201.014 24.1491 156.312 15.5753C127.571 10.0546 94.7021 9.27818 71.5492 24.7018C49.264 39.5398 42.0657 65.1559 38.1937 88.923C35.2815 106.808 33.5921 125.626 41.5529 142.373C47.0947 153.993 56.9291 163.764 63.7329 174.898C87.3986 213.634 70.6683 261.406 45.0173 299.261C32.9873 317.027 19.0311 333.931 9.7489 352.822C0.466701 371.713 -3.83256 393.355 4.29265 412.621C12.3456 431.704 31.5279 446.061 52.3143 456.148C94.5312 476.619 144.275 482.475 192.783 485.831C300.16 493.181 408.115 489.996 515.774 486.811C555.617 485.627 595.639 484.436 634.832 478.257C656.598 474.829 679.073 469.394 694.877 456.273C714.933 439.613 719.91 411.411 706.466 390.519C683.918 355.487 621.579 346.782 605.815 309.183C597.144 288.489 606.052 265.433 618.66 246.239C645.698 205.067 691.031 168.943 693.417 121.876C695.061 89.5481 673.269 57.1809 639.571 41.8823C604.257 25.8336 555.282 27.8602 529.23 54.3844C502.403 81.7113 455.255 92.2262 414.846 90.8246Z" fill="white"/>
<path d="M159.25 477.079C159.25 477.079 123.094 449.719 116.264 414.918C113.494 400.301 106.065 386.977 95.0901 376.944C89.8399 372.225 84.1694 367.996 78.1494 364.311" stroke="#535461" stroke-width="2" stroke-miterlimit="10"/>
<path d="M73.7252 342.386C76.8938 346.676 78.3269 364.857 78.3269 364.857C78.3269 364.857 61.3862 358.178 58.211 353.894C56.6864 351.835 56.0414 349.254 56.418 346.718C56.7947 344.183 58.162 341.902 60.2193 340.375C62.2766 338.849 64.8554 338.204 67.3882 338.581C69.921 338.958 72.2005 340.326 73.7252 342.386V342.386Z" fill="#19193F"/>
<path d="M104.109 356.652C104.438 361.975 95.7803 378.017 95.7803 378.017C95.7803 378.017 85.1768 363.186 84.8415 357.862C84.714 355.325 85.5907 352.839 87.2815 350.943C88.9724 349.048 91.3413 347.896 93.8749 347.737C96.4084 347.578 98.9027 348.424 100.817 350.093C102.732 351.761 103.912 354.118 104.103 356.652H104.109Z" fill="#19193F"/>
<path d="M133.56 397.658C131.167 402.422 115.594 411.897 115.594 411.897C115.594 411.897 113.93 393.736 116.323 388.972C117.501 386.732 119.511 385.044 121.919 384.272C124.328 383.5 126.943 383.705 129.203 384.843C131.462 385.982 133.184 387.962 133.999 390.359C134.814 392.755 134.656 395.377 133.56 397.658V397.658Z" fill="#19193F"/>
<path d="M148.87 433.69C147.312 438.79 133.566 450.759 133.566 450.759C133.566 450.759 128.853 433.144 130.411 428.038C131.16 425.588 132.85 423.536 135.111 422.333C137.371 421.131 140.016 420.876 142.464 421.626C144.912 422.375 146.962 424.067 148.163 426.33C149.365 428.593 149.619 431.24 148.87 433.69V433.69Z" fill="#19193F"/>
<path d="M80.1084 390.914C85.3674 391.624 101.993 384.11 101.993 384.11C101.993 384.11 87.9641 372.476 82.6787 371.766C80.142 371.425 77.5737 372.106 75.5389 373.66C73.5041 375.214 72.1695 377.514 71.8287 380.053C71.4878 382.592 72.1686 385.163 73.7214 387.2C75.2741 389.237 77.5716 390.572 80.1084 390.914V390.914Z" fill="#19193F"/>
<path d="M98.5478 432.835C103.807 431.934 117.395 419.793 117.395 419.793C117.395 419.793 100.527 412.898 95.2741 413.799C94.0165 414.005 92.8123 414.459 91.7308 415.134C90.6493 415.808 89.712 416.691 88.9731 417.73C88.2341 418.769 87.708 419.944 87.4253 421.188C87.1426 422.432 87.1088 423.719 87.3258 424.976C87.5428 426.233 88.0064 427.435 88.6898 428.511C89.3732 429.588 90.2628 430.518 91.3074 431.249C92.3519 431.98 93.5307 432.496 94.7757 432.768C96.0207 433.04 97.3072 433.063 98.561 432.835H98.5478Z" fill="#19193F"/>
<path d="M122.049 471.125C127.381 471.125 142.829 461.459 142.829 461.459C142.829 461.459 127.374 451.806 122.043 451.806C119.483 451.806 117.029 452.823 115.219 454.635C113.409 456.446 112.392 458.903 112.392 461.465C112.392 464.027 113.409 466.484 115.219 468.295C117.029 470.107 119.483 471.125 122.043 471.125H122.049Z" fill="#19193F"/>
<path d="M510.488 240.441C510.488 240.441 532.773 200.928 566.366 189.544C580.471 184.855 592.678 175.715 601.154 163.494C605.13 157.651 608.56 151.455 611.403 144.984" stroke="#535461" stroke-width="2" stroke-miterlimit="10"/>
<path d="M632.491 137.747C628.665 141.458 610.857 145.301 610.857 145.301C610.857 145.301 615.229 127.6 619.054 123.883C620.901 122.152 623.353 121.216 625.882 121.277C628.411 121.338 630.815 122.391 632.577 124.208C634.338 126.026 635.316 128.463 635.3 130.995C635.284 133.527 634.276 135.952 632.491 137.747Z" fill="#19193F"/>
<path d="M622.42 169.746C617.161 170.785 600.155 164.324 600.155 164.324C600.155 164.324 613.434 151.822 618.66 150.802C619.915 150.523 621.213 150.498 622.478 150.728C623.742 150.958 624.948 151.439 626.025 152.142C627.101 152.845 628.026 153.756 628.746 154.822C629.466 155.888 629.966 157.087 630.216 158.349C630.467 159.611 630.463 160.911 630.205 162.171C629.947 163.431 629.44 164.628 628.714 165.689C627.987 166.751 627.057 167.656 625.976 168.353C624.895 169.05 623.686 169.523 622.42 169.746V169.746Z" fill="#19193F"/>
<path d="M585.765 204.409C580.729 202.666 569.284 188.479 569.284 188.479C569.284 188.479 587.034 184.413 592.082 186.156C593.295 186.559 594.416 187.199 595.38 188.039C596.344 188.879 597.132 189.902 597.698 191.049C598.263 192.196 598.596 193.444 598.675 194.721C598.755 195.998 598.581 197.278 598.163 198.486C597.744 199.695 597.09 200.809 596.238 201.762C595.387 202.716 594.354 203.491 593.201 204.042C592.047 204.593 590.796 204.909 589.52 204.972C588.243 205.035 586.967 204.844 585.765 204.409V204.409Z" fill="#19193F"/>
<path d="M552.081 224.386C546.822 223.517 533.175 211.443 533.175 211.443C533.175 211.443 549.997 204.429 555.249 205.297C557.777 205.713 560.037 207.118 561.53 209.201C563.024 211.285 563.629 213.877 563.214 216.408C562.798 218.938 561.395 221.199 559.313 222.694C557.231 224.189 554.642 224.795 552.114 224.379L552.081 224.386Z" fill="#19193F"/>
<path d="M585.305 150.486C585.298 155.822 594.968 171.305 594.968 171.305C594.968 171.305 604.625 155.842 604.625 150.512C604.659 149.223 604.434 147.94 603.964 146.739C603.495 145.538 602.789 144.443 601.89 143.52C600.991 142.596 599.916 141.861 598.729 141.36C597.542 140.859 596.267 140.601 594.978 140.601C593.69 140.601 592.414 140.859 591.227 141.36C590.04 141.861 588.965 142.596 588.066 143.52C587.167 144.443 586.461 145.538 585.992 146.739C585.522 147.94 585.297 149.223 585.331 150.512L585.305 150.486Z" fill="#19193F"/>
<path d="M546.237 174.345C547.828 179.438 561.659 191.315 561.659 191.315C561.659 191.315 566.261 173.667 564.657 168.574C563.825 166.215 562.111 164.27 559.875 163.15C557.64 162.03 555.057 161.823 552.672 162.57C550.286 163.318 548.284 164.964 547.086 167.16C545.888 169.356 545.588 171.932 546.25 174.345H546.237Z" fill="#19193F"/>
<path d="M511.481 202.751C512.191 208.015 523.814 222.077 523.814 222.077C523.814 222.077 531.314 205.462 530.604 200.178C530.463 198.898 530.068 197.659 529.442 196.534C528.816 195.409 527.971 194.42 526.957 193.627C525.944 192.834 524.782 192.251 523.54 191.914C522.298 191.576 521.002 191.491 519.726 191.662C518.451 191.834 517.223 192.259 516.114 192.913C515.006 193.566 514.039 194.435 513.27 195.468C512.502 196.502 511.948 197.678 511.641 198.929C511.334 200.18 511.279 201.479 511.481 202.751V202.751Z" fill="#19193F"/>
<path opacity="0.25" d="M632.491 137.747C628.665 141.458 610.857 145.301 610.857 145.301C610.857 145.301 615.229 127.6 619.054 123.883C620.901 122.152 623.353 121.216 625.882 121.277C628.411 121.338 630.815 122.391 632.577 124.208C634.338 126.026 635.316 128.463 635.3 130.995C635.284 133.527 634.276 135.952 632.491 137.747Z" fill="black"/>
<path opacity="0.25" d="M622.42 169.746C617.161 170.785 600.155 164.324 600.155 164.324C600.155 164.324 613.434 151.822 618.66 150.802C619.915 150.523 621.213 150.498 622.478 150.728C623.742 150.958 624.948 151.439 626.025 152.142C627.101 152.845 628.026 153.756 628.746 154.822C629.466 155.888 629.966 157.087 630.216 158.349C630.467 159.611 630.463 160.911 630.205 162.171C629.947 163.431 629.44 164.628 628.714 165.689C627.987 166.751 627.057 167.656 625.976 168.353C624.895 169.05 623.686 169.523 622.42 169.746V169.746Z" fill="black"/>
<path opacity="0.25" d="M585.765 204.409C580.729 202.666 569.284 188.479 569.284 188.479C569.284 188.479 587.034 184.413 592.082 186.156C593.295 186.559 594.416 187.199 595.38 188.039C596.344 188.879 597.132 189.902 597.698 191.049C598.263 192.196 598.596 193.444 598.675 194.721C598.755 195.998 598.581 197.278 598.163 198.486C597.744 199.695 597.09 200.809 596.238 201.762C595.387 202.716 594.354 203.491 593.201 204.042C592.047 204.593 590.796 204.909 589.52 204.972C588.243 205.035 586.967 204.844 585.765 204.409V204.409Z" fill="black"/>
<path opacity="0.25" d="M552.081 224.386C546.822 223.517 533.175 211.443 533.175 211.443C533.175 211.443 549.997 204.429 555.249 205.297C557.777 205.713 560.037 207.118 561.53 209.201C563.024 211.285 563.629 213.877 563.214 216.408C562.798 218.938 561.395 221.199 559.313 222.694C557.231 224.189 554.642 224.795 552.114 224.379L552.081 224.386Z" fill="black"/>
<path opacity="0.25" d="M585.305 150.486C585.298 155.822 594.968 171.305 594.968 171.305C594.968 171.305 604.625 155.842 604.625 150.512C604.659 149.223 604.434 147.94 603.964 146.739C603.495 145.538 602.789 144.443 601.89 143.52C600.991 142.596 599.916 141.861 598.729 141.36C597.542 140.859 596.267 140.601 594.978 140.601C593.69 140.601 592.414 140.859 591.227 141.36C590.04 141.861 588.965 142.596 588.066 143.52C587.167 144.443 586.461 145.538 585.992 146.739C585.522 147.94 585.297 149.223 585.331 150.512L585.305 150.486Z" fill="black"/>
<path opacity="0.25" d="M546.237 174.345C547.828 179.438 561.659 191.315 561.659 191.315C561.659 191.315 566.261 173.667 564.657 168.574C563.825 166.215 562.111 164.27 559.875 163.15C557.64 162.03 555.057 161.823 552.672 162.57C550.286 163.318 548.284 164.964 547.086 167.16C545.888 169.356 545.588 171.932 546.25 174.345H546.237Z" fill="black"/>
<path opacity="0.25" d="M511.481 202.751C512.191 208.015 523.814 222.077 523.814 222.077C523.814 222.077 531.314 205.462 530.604 200.178C530.463 198.898 530.068 197.659 529.442 196.534C528.816 195.409 527.971 194.42 526.957 193.627C525.944 192.834 524.782 192.251 523.54 191.914C522.298 191.576 521.002 191.491 519.726 191.662C518.451 191.834 517.223 192.259 516.114 192.913C515.006 193.566 514.039 194.435 513.27 195.468C512.502 196.502 511.948 197.678 511.641 198.929C511.334 200.18 511.279 201.479 511.481 202.751V202.751Z" fill="black"/>
<path d="M511.77 239.658C511.77 239.658 516.148 194.493 542.22 170.476C553.217 160.466 560.676 147.159 563.48 132.548C564.756 125.603 565.392 118.554 565.38 111.492" stroke="#535461" stroke-width="2" stroke-miterlimit="10"/>
<path d="M581.722 96.2526C579.75 101.201 564.998 111.939 564.998 111.939C564.998 111.939 561.83 93.9825 563.822 89.0343C564.781 86.6583 566.643 84.7609 569 83.7595C571.356 82.7581 574.014 82.7348 576.387 83.6946C578.761 84.6544 580.657 86.5188 581.657 88.8776C582.658 91.2363 582.681 93.8963 581.722 96.2723V96.2526Z" fill="#19193F"/>
<path d="M585.476 129.627C581.117 132.693 562.927 133.7 562.927 133.7C562.927 133.7 570.014 116.895 574.372 113.828C575.406 113.054 576.584 112.495 577.838 112.185C579.091 111.875 580.394 111.819 581.669 112.022C582.944 112.225 584.165 112.681 585.261 113.365C586.356 114.049 587.304 114.946 588.047 116.003C588.79 117.059 589.313 118.255 589.587 119.518C589.86 120.781 589.877 122.086 589.637 123.356C589.398 124.625 588.906 125.834 588.191 126.91C587.476 127.986 586.553 128.908 585.476 129.62V129.627Z" fill="#19193F"/>
<path d="M565.978 176.201C560.666 176.648 544.455 168.305 544.455 168.305C544.455 168.305 559.049 157.382 564.361 156.934C566.911 156.72 569.443 157.528 571.398 159.182C573.353 160.835 574.572 163.198 574.787 165.752C575.001 168.305 574.193 170.839 572.541 172.796C570.889 174.753 568.528 175.973 565.978 176.188V176.201Z" fill="#19193F"/>
<path d="M543.292 208.106C538.131 209.422 520.75 203.981 520.75 203.981C520.75 203.981 533.286 190.748 538.447 189.406C540.924 188.763 543.555 189.131 545.762 190.43C547.968 191.729 549.568 193.852 550.21 196.331C550.853 198.811 550.485 201.445 549.187 203.653C547.89 205.862 545.769 207.463 543.292 208.106V208.106Z" fill="#19193F"/>
<path d="M543.752 127.074C545.908 131.95 560.988 142.208 560.988 142.208C560.988 142.208 563.552 124.153 561.396 119.277C560.321 116.996 558.398 115.225 556.037 114.345C553.676 113.464 551.065 113.542 548.761 114.563C546.457 115.584 544.643 117.466 543.707 119.807C542.771 122.149 542.787 124.764 543.752 127.094V127.074Z" fill="#19193F"/>
<path d="M517.693 164.725C521.21 168.732 538.657 173.983 538.657 173.983C538.657 173.983 535.712 155.986 532.195 151.979C531.365 151.006 530.35 150.207 529.209 149.63C528.067 149.052 526.823 148.708 525.548 148.616C524.272 148.524 522.991 148.687 521.779 149.095C520.567 149.502 519.448 150.147 518.488 150.992C517.527 151.836 516.743 152.863 516.182 154.014C515.622 155.164 515.295 156.414 515.221 157.692C515.147 158.97 515.327 160.249 515.752 161.457C516.176 162.664 516.836 163.775 517.693 164.725V164.725Z" fill="#19193F"/>
<path d="M497.387 204.811C500.174 209.351 516.484 217.477 516.484 217.477C516.484 217.477 516.622 199.244 513.854 194.697C512.477 192.598 510.336 191.118 507.887 190.572C505.437 190.026 502.872 190.456 500.734 191.772C498.596 193.087 497.055 195.184 496.436 197.619C495.817 200.053 496.17 202.633 497.42 204.811H497.387Z" fill="#19193F"/>
<path d="M478.244 62.7806C479.335 58.7734 480.65 54.7464 481.57 50.6865C480.466 54.7464 479.145 58.7866 478.244 62.7806Z" fill="url(#paint0_linear_8_7)"/>
<path d="M473.353 101.379C473.261 101.221 473.195 101.063 473.123 100.918C473.123 100.852 473.057 100.8 473.031 100.734C472.888 100.802 472.741 100.861 472.59 100.912C472.301 101.023 472.005 101.129 471.703 101.214C471.401 101.3 471.276 101.346 471.046 101.398C470.855 101.464 470.659 101.515 470.461 101.55L470.513 101.668C470.756 101.616 470.993 101.57 471.236 101.504L471.302 102.32C471.578 102.32 471.834 102.28 472.084 102.28C472.203 102.274 472.321 102.274 472.439 102.28C472.952 102.28 473.399 102.28 473.754 102.28C473.616 101.984 473.471 101.675 473.353 101.379ZM606.801 314C603.711 309.834 597.545 265.13 597.545 265.13C597.545 265.13 585.417 233.341 588.723 220.655C592.03 207.969 579.691 175.509 579.691 175.509C579.691 175.509 571.539 171.963 571.099 166.699C571.099 166.699 537.816 156.171 536.258 148.275C534.996 141.8 514.354 137.154 506.939 135.687C504.677 126.554 502.403 118.033 500.726 113.381C500.273 111.933 499.845 110.683 499.451 109.696C496.618 102.458 487.861 101.8 481.511 102.379C481.236 101.145 480.725 99.9767 480.006 98.9376C479.901 98.5803 479.693 98.2621 479.408 98.0229C479.271 97.9067 479.126 97.8011 478.974 97.7071C478.859 97.4938 478.707 97.3023 478.527 97.1412C478.346 96.9786 478.148 96.8372 477.935 96.7201C477.782 96.6373 477.624 96.5648 477.462 96.5029C477.081 96.3577 476.687 96.2497 476.285 96.1805C475.817 96.0841 475.342 96.0226 474.865 95.9963C476.025 95.4882 477.06 94.7312 477.896 93.7788C478.464 93.1101 478.887 92.3303 479.138 91.4889C479.346 90.7893 479.439 90.0603 479.414 89.3307C479.244 89.6314 479.046 89.9155 478.822 90.1795C479.099 87.2646 477.56 84.3035 476.679 81.4017C475.612 77.624 475.414 73.6532 476.101 69.788C476.982 63.9581 479.164 58.0623 480.643 52.1271C480.647 52.0943 480.647 52.0612 480.643 52.0284C481.419 49.0809 481.899 46.0633 482.076 43.0204C482.333 36.8812 480.762 30.7552 478.237 25.1621C475.996 20.2074 472.689 15.3316 467.627 13.3181C463.867 11.7981 459.653 12.0415 455.604 11.7915C446.519 11.2256 437.855 8.02771 429.217 5.11933C420.579 2.21095 411.691 -0.434223 402.599 0.0724402C393.508 0.579103 384.153 4.96799 380.005 13.022C378.69 15.5355 377.934 18.3321 376.363 20.6943C373.418 25.149 368.146 27.3796 363.748 30.4525C359.35 33.5254 355.478 37.8879 353.887 43.0927C353.019 45.8969 352.896 48.8795 353.532 51.7455V51.7455C353.675 52.3927 353.86 53.0301 354.085 53.6537C354.709 55.3923 355.682 56.9845 356.944 58.3321C357.896 59.3281 358.991 60.1774 360.192 60.8523V60.8523C361.7 61.689 363.314 62.3176 364.991 62.721C364.931 62.9184 364.872 63.129 364.806 63.333C364.701 63.6685 364.609 63.991 364.511 64.3529C364.294 65.1622 364.09 65.9847 363.919 66.8138C363.912 66.8728 363.912 66.9324 363.919 66.9915C363.112 70.7342 362.706 74.5525 362.709 78.3815C362.708 80.1924 362.8 82.0021 362.986 83.8035V83.8035C365.615 110.505 387.637 131.568 414.846 132.937C415.78 132.983 416.72 133.009 417.673 133.009C418.107 133.009 418.534 133.009 418.988 133.009C419.415 133.575 419.836 134.154 420.237 134.72C420.638 135.286 421.006 135.865 421.354 136.431L420.401 135.444L419.448 134.568C419.189 134.923 418.901 135.256 418.587 135.562C417.965 135.343 417.331 135.163 416.687 135.022V135.022C413.959 134.417 409.804 134.193 404.335 135.845C399.306 137.352 393.159 140.451 385.968 146.34L350.923 167.396L331.964 178.938L325.134 195.651C325.134 195.651 319.999 215.51 314.287 238.263C314.063 238.329 313.846 238.395 313.629 238.474C313.167 238.421 312.701 238.395 312.236 238.395C308.921 238.387 305.733 239.665 303.34 241.961C300.947 244.257 299.536 247.391 299.404 250.706C288.044 264.524 287.4 278.342 290.069 284.686C290.311 285.28 290.615 285.847 290.976 286.377C292.725 288.903 295.992 295.418 299.305 302.359C299.22 302.932 299.167 303.412 299.141 303.774C299.135 303.893 299.135 304.011 299.141 304.13C299.141 304.13 301.113 333.944 294.539 342.491C293.099 344.353 293.316 346.801 294.539 349.512C298.944 359.264 316.358 372.286 316.358 372.286C316.358 372.286 337.243 372.174 348.878 370.904C348.845 372.075 348.819 373.24 348.793 374.378C348.53 385.88 348.53 395.52 348.53 395.52L348.096 407.581C348.096 407.581 344.152 433 342.179 440.007C340.937 444.403 342.37 485.1 343.619 515.02H549.392C551.811 497.32 548.4 443.541 548.4 443.541C548.4 443.541 545.159 429.637 545.04 417.517C545.034 417.503 545.031 417.489 545.031 417.474C545.031 417.459 545.034 417.445 545.04 417.431C545.04 416.372 545.04 415.339 545.08 414.325L546.572 414.273L549.254 414.181H549.497C549.497 414.181 549.563 413.931 549.714 413.523C550.069 412.506 550.553 411.54 551.154 410.647C552.298 408.956 554.086 407.298 556.775 407.186C558.26 407.127 560.561 405.923 563.158 404.146C563.175 404.15 563.193 404.15 563.21 404.146C570.198 399.415 579.434 390.683 581.676 389.249C584.759 387.275 599.524 374.115 599.524 374.115C599.524 374.115 601.726 371.325 604.073 367.963L604.158 367.844C607.077 363.633 610.18 358.599 609.418 357.013C608.103 354.171 610.298 347.374 610.298 347.374C617.155 334.812 609.891 318.165 606.801 314ZM479.684 111.611C479.747 111.807 479.786 112.01 479.802 112.216C479.638 111.999 479.473 111.769 479.309 111.558L479.151 111.348L479.039 111.19L479.289 110.847C479.289 110.847 479.289 110.847 479.289 110.893C479.463 111.107 479.596 111.35 479.684 111.611V111.611ZM477.475 105.781C476.758 105.926 476.193 106.057 475.825 106.156C475.358 105.327 474.911 104.498 474.51 103.655C475.564 104.267 476.557 104.979 477.475 105.781V105.781ZM476.239 106.82C476.237 106.807 476.237 106.794 476.239 106.781L476.292 106.82C476.561 106.998 476.824 107.169 477.067 107.347C477.284 107.505 477.481 107.656 477.679 107.814C477.547 108.044 477.402 108.281 477.258 108.472C477.028 108.11 476.811 107.761 476.6 107.399C476.469 107.255 476.351 107.057 476.239 106.82ZM472.295 98.7007C473.565 98.5753 474.844 98.5753 476.114 98.7007V98.7007C476.292 98.7007 476.449 98.7336 476.607 98.7599C476.964 98.8151 477.314 98.9054 477.652 99.0297C478.429 100.118 478.907 101.39 479.039 102.721L478.684 102.774L478.336 102.84C477.679 102.951 477.021 103.063 476.508 103.169L475.851 103.307C474.977 103.498 474.471 103.642 474.451 103.649C474.365 103.471 474.28 103.307 474.188 103.136C474.043 102.853 473.892 102.563 473.761 102.28C473.629 101.997 473.458 101.675 473.32 101.379C473.228 101.221 473.162 101.063 473.09 100.918C473.09 100.852 473.024 100.8 472.998 100.734C472.96 100.664 472.927 100.592 472.899 100.517C472.498 99.7008 472.13 98.8849 471.775 98.0821C471.736 98.0032 471.703 97.9177 471.67 97.8387L472.17 97.8058V97.9769L472.295 98.7007ZM315.45 506.887C315.398 497.089 314.688 486.489 312.716 476.54C311.874 472.309 311.007 468.078 310.126 463.919C309.902 462.88 309.685 461.853 309.468 460.827L307.444 461.096H307.259C301.737 435.033 295.966 412.069 295.966 412.069C295.966 412.069 284.501 368.252 285.829 364.758C286 364.304 285.783 363.08 285.296 361.284C282.522 351.322 270.939 323.87 266.89 314.487C266.89 314.447 266.857 314.401 266.844 314.368C266.186 312.795 265.713 311.736 265.568 311.427L266.522 297.424L266.574 296.582L266.699 294.792L266.646 294.746L266.699 293.917C266.699 293.917 256.694 285.705 239.747 279.777C239.089 279.54 238.392 279.31 237.702 279.086C238.55 273.42 239.674 267.025 241.14 260.793C241.278 260.168 241.429 259.563 241.587 258.951C241.725 258.339 241.883 257.747 242.041 257.148C242.291 256.174 242.56 255.214 242.836 254.266C243.75 253.976 244.651 253.654 245.538 253.312L245.88 253.18C256.813 248.922 265.834 240.843 271.273 230.439C276.711 220.035 278.2 208.01 275.462 196.592V196.592C273.901 190.116 271.018 184.034 266.995 178.727C266.693 178.319 266.37 177.911 266.048 177.51C265.726 177.108 265.338 176.661 264.977 176.253C266.877 171.93 269.118 167.817 269.302 163.613C269.335 163.08 269.335 162.546 269.302 162.014V161.948C269.059 159.244 267.863 156.506 265.075 153.631C261.006 149.413 255.215 147.275 249.423 146.248C243.632 145.222 237.728 145.195 231.904 144.504C222.247 143.346 212.84 140.365 203.183 139.451C191.288 138.348 179.313 140.39 168.454 145.373C161.269 148.663 153.991 154.414 153.557 162.303C153.202 168.824 157.738 175.075 156.595 181.517C155.457 187.847 149.015 192.828 149.58 199.231C149.797 201.731 151.079 203.968 152.683 205.962C153.235 206.62 153.82 207.278 154.425 207.936C156.765 210.417 159.342 212.799 160.651 215.924C160.703 216.056 160.756 216.187 160.802 216.319C161.913 219.405 161.413 223.307 158.665 225.077C158.68 225.089 158.692 225.105 158.698 225.123V225.123C158.738 225.176 158.777 225.215 158.81 225.268C158.814 225.257 158.814 225.245 158.81 225.235C159.784 226.391 161.098 227.211 162.564 227.577L163.122 227.748C162.669 228.242 162.241 228.755 161.808 229.295L161.525 229.67C160.8 230.645 160.142 231.667 159.553 232.73C159.217 233.322 158.895 233.914 158.626 234.506C157.725 236.311 157.072 238.23 156.687 240.211C155.983 244.567 156.976 249.107 155.911 253.371C154.596 258.635 150.435 262.675 148.088 267.564C143.644 276.776 146.162 287.587 147.056 297.76C148.272 311.578 146.3 325.455 144.334 339.181C143.291 346.481 142.248 353.787 141.205 361.1C138.576 379.453 135.946 397.807 133.317 416.161C132.357 422.886 131.22 429.979 126.743 435.171H126.789C126.789 435.171 126.789 435.211 126.743 435.224C128.087 435.812 129.516 436.18 130.976 436.316V436.316C136.821 436.902 143.013 434.072 148.272 430.98C152.437 428.571 156.381 425.798 160.059 422.695C159.52 424.669 158.941 426.821 158.323 429.137C158.325 429.159 158.325 429.181 158.323 429.203V429.203C150.902 457.497 138.964 509.368 138.964 509.368C138.964 509.368 137.879 511.625 136.472 514.987H321.853C319.684 512.355 317.666 509.835 316.088 507.802L315.45 506.887ZM178.189 245.264C178.235 245.186 178.268 245.113 178.314 245.041C178.314 245.251 178.314 245.455 178.314 245.653C178.314 245.85 178.314 246.028 178.314 246.212C178.314 246.396 178.314 246.377 178.314 246.469C178.314 246.561 178.314 246.469 178.314 246.469C178.314 246.738 178.255 247.008 178.209 247.278C178.209 247.278 178.209 247.311 178.209 247.337L178.867 247.581L179.629 247.897C184.134 249.678 188.697 251.29 193.316 252.733C193.789 252.884 194.269 253.029 194.749 253.167L194.847 253.983C194.966 254.819 195.078 255.668 195.183 256.516C195.183 256.516 195.183 256.556 195.183 256.582C195.479 258.931 195.768 261.274 196.024 263.564C196.024 263.564 183.955 258.958 184.106 265.952C184.099 266.077 184.099 266.202 184.106 266.327C184.093 266.494 184.093 266.661 184.106 266.827C184.218 272.276 185.92 275.506 186.262 277.165C186.242 277.233 186.206 277.296 186.157 277.349C185.865 277.984 185.765 278.691 185.868 279.382C185.856 280.559 185.949 281.735 186.144 282.896C185.789 283.113 185.44 283.33 185.092 283.554C184.829 283.718 184.579 283.902 184.323 284.087C182.71 278.487 180.6 273.044 178.019 267.821C176.211 264.097 174.179 260.214 174.199 256.128C174.199 255.865 174.199 255.595 174.232 255.325C174.305 254.141 174.531 252.971 174.903 251.845C175.054 251.417 175.218 250.996 175.402 250.581C175.832 249.596 176.312 248.634 176.842 247.699C177.184 247.081 177.545 246.469 177.894 245.85C178.005 245.666 178.111 245.475 178.216 245.291L178.189 245.264ZM473.353 101.379C473.261 101.221 473.195 101.063 473.123 100.918C473.123 100.852 473.057 100.8 473.031 100.734C472.888 100.802 472.741 100.861 472.59 100.912C472.301 101.023 472.005 101.129 471.703 101.214C471.401 101.3 471.276 101.346 471.046 101.398L470.461 101.55L470.513 101.668C470.756 101.616 470.993 101.57 471.236 101.504L471.302 102.32C471.578 102.32 471.834 102.28 472.084 102.28H472.439C472.952 102.28 473.399 102.28 473.754 102.28C473.616 101.984 473.471 101.675 473.353 101.379Z" fill="url(#paint1_linear_8_7)"/>
<path d="M329.715 198.026L325.771 199.77C325.771 199.77 300.061 299.747 300.061 307.827C300.061 315.907 354.578 360.869 354.578 360.869L363.084 303.399C363.084 303.399 350.87 171.607 329.715 198.026Z" fill="#E8F5FF"/>
<path d="M449.299 166.225L426.521 154.328C425.245 148.884 422.981 143.721 419.842 139.095C416.509 134.279 412.079 129.548 406.557 127.08C392.6 120.816 465.589 87.9355 465.589 87.9355C466.739 91.8854 468.093 95.7729 469.645 99.5822C473.406 108.873 479.644 120.888 487.684 124.31C501.351 130.133 449.299 166.225 449.299 166.225Z" fill="#FFC1C7"/>
<path opacity="0.1" d="M469.645 99.5822C466.527 110.561 460.041 120.282 451.105 127.372C442.169 134.462 431.233 138.563 419.842 139.095C416.509 134.279 412.079 129.548 406.557 127.08C392.6 120.816 465.589 87.9355 465.589 87.9355C466.739 91.8854 468.093 95.7729 469.645 99.5822V99.5822Z" fill="black"/>
<path d="M471.696 82.9807C471.699 93.7481 468.511 104.274 462.537 113.228C456.562 122.182 448.069 129.162 438.131 133.284C428.193 137.406 417.258 138.485 406.707 136.386C396.156 134.286 386.465 129.102 378.858 121.489C371.251 113.876 366.07 104.175 363.971 93.6148C361.873 83.0543 362.95 72.108 367.067 62.1604C371.184 52.2127 378.155 43.7105 387.1 37.7292C396.045 31.7478 406.561 28.5559 417.318 28.5572C424.468 28.5241 431.553 29.9092 438.165 32.6324C444.777 35.3556 450.785 39.3631 455.841 44.4233C460.897 49.4835 464.901 55.4962 467.623 62.1142C470.344 68.7321 471.729 75.8242 471.696 82.9807V82.9807Z" fill="#FFC1C7"/>
<path d="M479.546 159.237L464.715 193.875L451.633 216.865H409.758L397.544 185.432L402.494 152.835H434.476L455.124 151.67L462.099 149.341L466.595 151.894L479.546 159.237Z" fill="#575A89"/>
<path opacity="0.1" d="M474.438 113.065C474.438 113.065 483.687 115.039 475.404 121.836C467.121 128.633 438.545 150.249 438.545 150.249C438.545 150.249 448.583 159.197 446.506 169.679L479.762 151.124L485.679 121.435C485.679 121.435 486.343 112.512 474.438 113.065Z" fill="black"/>
<path opacity="0.1" d="M445.086 150.249L423.931 153.743C423.931 153.743 428.296 169.897 426.114 174.483C426.048 174.626 425.993 174.773 425.949 174.924L417.318 198.277L423.786 216.615L446.177 186.051L438.545 174.483C438.545 174.483 446.611 163.784 451.41 160.073C456.208 156.362 445.086 150.249 445.086 150.249Z" fill="black"/>
<path d="M445.086 149.348L423.931 152.835C423.931 152.835 428.296 168.989 426.114 173.575C426.048 173.718 425.993 173.865 425.949 174.016L417.318 197.369L423.786 215.707L446.177 185.123L438.545 173.556C438.545 173.556 446.611 162.856 451.41 159.145C456.208 155.434 445.086 149.348 445.086 149.348Z" fill="#DCE6F2"/>
<path d="M475.325 111.322C475.325 111.322 484.574 113.296 476.285 120.093C467.995 126.89 438.545 150.249 438.545 150.249C438.545 150.249 449.451 157.454 447.38 167.93L480.637 149.38L486.553 119.691C486.553 119.691 487.211 110.769 475.325 111.322Z" fill="#575A89"/>
<path opacity="0.1" d="M421.295 141.155C421.295 141.155 423.313 144.932 432.221 151.743C432.221 151.743 417.39 159.639 423.063 170.739L400.377 164.817L396.886 153.901L421.295 141.155Z" fill="black"/>
<path d="M420.421 140.286C420.421 140.286 422.439 144.063 431.346 150.873C431.346 150.873 416.516 158.73 422.189 169.863L399.509 163.941L396.019 153.032L420.421 140.286Z" fill="#575A89"/>
<path opacity="0.1" d="M479.546 159.237L464.715 193.874L451.659 216.865H409.758L397.544 185.432L402.487 152.834H411.382C411.237 160.441 414.011 169.377 413.834 172.7C413.531 178.161 421.972 207.627 421.972 207.627C421.972 207.627 439.636 179.03 446.611 176.483C450.996 174.884 460.284 161.579 466.589 151.894L479.546 159.237Z" fill="black"/>
<path d="M537.967 341.511L536.461 343.406C536.461 343.406 547.367 398.198 544.35 410.641C543.837 412.883 543.544 415.171 543.476 417.471V417.569C542.943 430.229 546.762 446.66 546.762 446.66C546.762 446.66 549.813 495.089 548.077 515.007H343.882C342.685 485.554 341.397 447.397 342.567 443.166C344.539 436.184 348.484 410.858 348.484 410.858L348.917 398.856C348.917 398.856 348.917 387.255 349.272 374.332C349.424 368.522 349.647 362.422 349.969 357.013C350.383 350.209 350.962 344.478 351.757 341.662C352.247 339.527 352.529 337.35 352.599 335.161C352.599 334.957 352.599 334.746 352.638 334.536C352.638 333.878 352.704 333.167 352.73 332.437C352.73 332.233 352.73 332.029 352.73 331.779C352.855 327.541 352.809 322.514 352.671 317.303C352.671 317.02 352.671 316.73 352.671 316.441C352.559 312.532 352.395 308.545 352.211 304.755C351.639 292.911 350.896 282.896 350.896 282.896L325.817 199.724L332.575 183.063L351.33 171.561L386.007 150.604C402.921 136.687 414.057 138.359 418.304 139.885C418.716 140.026 419.12 140.191 419.513 140.379C419.645 140.444 419.75 140.497 419.849 140.556C419.984 140.62 420.114 140.695 420.237 140.78V140.78C419.074 141.34 418.063 142.173 417.292 143.208C416.422 144.386 415.802 145.729 415.471 147.156C415.249 148.04 415.092 148.94 415.004 149.847C414.918 150.801 414.886 151.788 414.886 152.782C414.932 154.961 415.119 157.135 415.444 159.29C415.444 159.329 415.444 159.382 415.444 159.434C415.661 160.974 415.931 162.481 416.194 163.896C416.191 163.92 416.191 163.944 416.194 163.968C416.496 165.62 416.799 167.146 417.002 168.462C417.042 168.699 417.075 168.916 417.107 169.12C417.252 169.99 417.321 170.871 417.311 171.752C417.385 173.881 417.672 175.997 418.166 178.069C418.337 178.938 418.534 179.865 418.751 180.833C419.047 182.149 419.369 183.583 419.717 185.044C419.908 185.847 420.112 186.676 420.322 187.498C420.401 187.827 420.486 188.156 420.565 188.492L420.697 189.012C422.097 194.585 423.616 200.132 424.549 203.488C425.101 205.462 425.45 206.679 425.45 206.679C425.45 206.679 435.35 190.657 443.251 181.537C443.37 181.405 443.475 181.28 443.587 181.162C444.369 180.26 445.138 179.438 445.874 178.714C447.485 177.108 448.931 175.963 450.095 175.542C450.343 175.451 450.583 175.339 450.811 175.207C454.046 173.371 459.265 166.705 464.15 159.724C464.629 159.066 465.096 158.349 465.57 157.671C466.654 156.105 467.706 154.532 468.699 153.025C469.461 151.874 470.191 150.755 470.881 149.689C474.168 144.57 476.482 140.754 476.482 140.754L481.044 140.55L481.84 140.51H482.372L503.086 139.549C503.086 139.549 503.98 139.701 505.453 139.997C505.532 139.997 505.611 139.997 505.696 140.05C513.046 141.51 533.464 146.136 534.713 152.552C536.238 160.408 569.173 170.89 569.173 170.89C569.606 176.154 577.673 179.622 577.673 179.622C577.673 179.622 589.887 211.93 586.619 224.59C583.392 237.092 595.021 268.018 595.33 268.887L593.101 271.703L537.967 341.511Z" fill="#E8F5FF"/>
<path opacity="0.1" d="M474.431 110.768C474.431 110.768 494.593 105.043 499.175 116.828C503.757 128.613 514.005 176.207 514.005 176.207C514.005 176.207 487.395 181.227 480.42 176.207C476.328 173.227 471.265 171.902 466.24 172.495L451.193 182.754L446.749 181.438C446.749 181.438 470.822 145.616 476.055 133.443C481.287 121.27 483.056 115.828 474.431 110.768Z" fill="black"/>
<path d="M473.557 108.136C473.557 108.136 493.732 102.412 498.334 114.196C502.935 125.981 513.164 173.575 513.164 173.575C513.164 173.575 486.56 178.595 479.578 173.575C475.49 170.595 470.428 169.269 465.405 169.864L450.345 180.122L445.901 178.806C445.901 178.806 469.974 142.984 475.207 130.811C480.44 118.638 482.182 113.209 473.557 108.136Z" fill="#E8F5FF"/>
<path opacity="0.1" d="M338.222 298.004C338.222 298.004 353.269 301.715 356.109 310.23C358.949 318.744 344.986 318.961 344.986 318.961C344.986 318.961 336.48 303.9 338.222 298.004Z" fill="black"/>
<path opacity="0.1" d="M394.27 360.869C394.27 360.869 357.417 436.401 365.924 443.607C374.43 450.812 394.27 360.869 394.27 360.869Z" fill="black"/>
<path opacity="0.1" d="M445.086 305.209C445.086 305.209 474.53 378.576 468.64 389.907C462.75 401.238 481.288 389.907 481.288 389.907L445.086 305.209Z" fill="black"/>
<path d="M486.087 377.682C486.087 377.682 386.638 382.485 415.648 413.484C444.658 444.482 504.191 414.8 504.191 414.8L486.087 377.682Z" fill="#FFC1C7"/>
<path opacity="0.1" d="M471.696 82.9814C471.705 90.1208 470.304 97.1917 467.574 103.787C466.661 103.893 465.747 103.959 464.866 103.998C463.551 101.109 464.255 97.7733 464.281 94.5951C464.307 91.417 463.137 87.6795 460.08 86.8241C453.986 85.1067 449.779 96.5099 443.771 94.4504C439.169 92.8843 440.372 85.8963 437.723 81.8628C435.626 78.6715 431.425 77.77 428.158 75.7697C421.209 71.4992 421.42 64.6691 418.192 58.2075C414.813 51.4367 407.674 53.437 401.475 57.4311C396.768 60.4711 392.705 64.5441 387.67 66.9656C383.311 69.0712 378.414 69.8345 373.582 69.9463C370.608 70.0617 367.632 69.747 364.747 69.0119C368.14 56.2427 376.058 45.1446 387.023 37.7875C397.988 30.4303 411.252 27.3163 424.342 29.0262C437.432 30.7361 449.454 37.153 458.165 47.0805C466.877 57.0079 471.684 69.7681 471.69 82.9814H471.696Z" fill="black"/>
<path d="M401.495 55.6873C396.781 58.7272 392.725 62.7937 387.69 65.2283C383.331 67.3274 378.434 68.0906 373.602 68.2025C367.686 68.3341 361.316 67.2945 357.273 63.0174C353.559 59.0694 352.671 52.996 354.242 47.8175C355.814 42.639 359.58 38.3423 364.004 35.2299C368.429 32.1176 373.563 29.9659 376.495 25.5112C378.046 23.1556 378.796 20.3788 380.084 17.8718C384.206 9.85071 393.475 5.50788 402.435 4.96832C411.395 4.42876 420.276 7.10025 428.809 9.99547C437.342 12.8907 445.94 16.0754 454.946 16.6742C458.956 16.9243 463.124 16.6742 466.845 18.1942C471.848 20.2274 475.128 25.0901 477.363 30.0383C479.868 35.6181 481.426 41.7113 481.163 47.8044C480.611 60.8131 472.025 73.5784 475.798 86.041C476.798 89.3639 478.671 92.7724 477.672 96.0953C476.213 100.945 469.961 102.05 464.906 102.281C463.591 99.3919 464.294 96.0492 464.321 92.8777C464.347 89.7061 463.177 85.962 460.127 85.1066C454.026 83.4024 449.819 94.7859 443.824 92.7329C439.255 91.1603 440.438 84.1788 437.782 80.1453C435.685 76.9474 431.478 76.0525 428.217 74.0522C421.269 69.7817 421.479 62.9516 418.251 56.49C414.846 49.6863 407.701 51.6866 401.495 55.6873Z" fill="#99607E"/>
<path d="M305.064 306.077L300.048 307.827C300.048 307.827 302.02 337.516 295.446 346.031C288.873 354.546 317.035 375.714 317.035 375.714C317.035 375.714 355.636 375.496 356.727 372.424C357.819 369.351 354.755 317.414 354.755 317.414C354.755 317.414 334.035 309.334 335.777 296.457C335.777 296.457 329.453 326.798 320.078 325.488C310.704 324.179 300.061 316.342 305.064 306.077Z" fill="#E8F5FF"/>
<path opacity="0.1" d="M321.794 334.674C329.103 334.674 335.027 329.25 335.027 322.56C335.027 315.87 329.103 310.446 321.794 310.446C314.486 310.446 308.561 315.87 308.561 322.56C308.561 329.25 314.486 334.674 321.794 334.674Z" fill="black"/>
<path d="M336.263 306.952C336.263 306.952 333.633 226.623 310.744 244.521C287.854 262.419 287.63 283.824 291.988 290.147C296.347 296.47 310.323 328.127 310.323 328.127C312.509 329.395 314.964 330.127 317.487 330.262C320.01 330.397 322.53 329.932 324.839 328.905C327.148 327.878 329.181 326.318 330.771 324.353C332.361 322.387 333.464 320.073 333.988 317.599L336.263 306.952Z" fill="#FFC1C7"/>
<path opacity="0.1" d="M479.052 103.478C478.946 103.125 478.74 102.81 478.461 102.569C477.33 101.536 474.898 101.175 471.23 101.49L471.381 103.227C476.272 102.806 477.238 103.78 477.363 103.945V104.109L477.514 104.326C478.124 105.147 478.556 106.086 478.782 107.083C479.009 108.08 479.025 109.113 478.829 110.117C477.757 115.48 471.177 119.75 471.111 119.796L470.954 119.888L470.855 120.039C468.015 124.257 451.955 136.161 447.755 139.24L447.386 138.819C445.506 140.451 428.98 154.933 428.086 160.48C427.507 163.961 423.589 165.31 422.169 165.685C420.671 164.547 415.806 160.671 413.275 156.328C410.902 152.242 420.454 144.267 421.295 141.155L419.98 139.806C419.842 140.306 407.576 151.782 410.987 157.644C413.722 162.349 418.718 166.376 420.467 167.705C419.908 172.785 416.43 202.612 411.086 209.679C404.446 218.464 398.865 262.734 399.483 278.191C400.029 291.923 396.446 317.862 384.482 329.002C382.41 331.015 379.912 332.534 377.172 333.445C374.432 334.357 371.522 334.637 368.659 334.266H368.514H368.369C368.198 334.266 350.844 336.042 336.263 323.738C324.332 313.69 317.574 297.293 316.167 274.986H315.878L315.759 268.492C318.994 267.986 321.908 266.246 323.887 263.635C325.867 261.025 326.759 257.748 326.375 254.493C325.992 251.238 324.363 248.259 321.831 246.181C319.299 244.103 316.061 243.089 312.797 243.351C309.533 243.612 306.498 245.13 304.329 247.585C302.16 250.04 301.026 253.241 301.165 256.515C301.304 259.79 302.706 262.883 305.076 265.144C307.445 267.406 310.598 268.66 313.873 268.643H314.017L314.136 275.098L313.557 275.138C315.003 298.168 322.103 315.204 334.593 325.725C344.087 333.599 356.213 337.571 368.521 336.839C369.394 336.934 370.272 336.983 371.15 336.983C376.791 337.013 382.219 334.827 386.27 330.897C398.872 319.152 402.704 292.259 402.106 278.059C401.449 261.681 407.306 219.003 413.183 211.232C418.942 203.606 422.432 173.891 423.044 168.133C425.128 167.547 429.841 165.698 430.643 160.895C431.222 157.421 442.259 146.715 449.05 140.786L448.846 140.549C452.501 137.878 463.867 129.456 469.501 124.047C471.249 122.369 472.985 120.691 474.799 119.092C476.982 117.157 479.756 114.085 480.486 110.452C480.734 109.253 480.735 108.016 480.489 106.817C480.243 105.617 479.754 104.481 479.052 103.478V103.478Z" fill="black"/>
<path d="M420.243 167.291C419.967 167.1 413.42 162.408 410.139 156.763C406.734 150.9 419.001 139.431 419.132 138.931L420.447 140.28C419.612 143.385 410.06 151.367 412.434 155.447C415.425 160.599 421.722 165.106 421.788 165.152L420.243 167.291Z" fill="#353146"/>
<path d="M446.9 140.517L445.875 139.102C446.085 138.951 466.733 124.001 469.987 119.164L470.092 119.02L470.244 118.921C470.309 118.875 476.89 114.611 477.961 109.242C478.159 108.239 478.144 107.206 477.917 106.21C477.691 105.214 477.258 104.276 476.646 103.458L476.495 103.234V103.076C476.364 102.905 475.397 101.938 470.507 102.359L470.355 100.615C474.03 100.3 476.456 100.661 477.587 101.694C477.868 101.937 478.075 102.254 478.185 102.609C478.896 103.61 479.394 104.745 479.65 105.946C479.905 107.147 479.912 108.387 479.67 109.591C478.941 113.229 476.173 116.302 473.984 118.23C472.176 119.829 470.434 121.52 468.692 123.185C462.085 129.521 447.623 139.997 446.9 140.517Z" fill="#E8F5FF"/>
<path d="M314.911 266.201L313.169 266.233L313.363 276.832L315.105 276.8L314.911 266.201Z" fill="#E8F5FF"/>
<path d="M313.025 267.808C320.05 267.808 325.745 262.107 325.745 255.075C325.745 248.043 320.05 242.343 313.025 242.343C305.999 242.343 300.304 248.043 300.304 255.075C300.304 262.107 305.999 267.808 313.025 267.808Z" fill="#19193F"/>
<path d="M313.025 265.649C318.859 265.649 323.589 260.915 323.589 255.075C323.589 249.235 318.859 244.501 313.025 244.501C307.19 244.501 302.46 249.235 302.46 255.075C302.46 260.915 307.19 265.649 313.025 265.649Z" fill="#E8F5FF"/>
<path d="M370.322 336.134C369.443 336.136 368.566 336.09 367.692 335.996C355.386 336.722 343.262 332.75 333.765 324.883C321.275 314.355 314.188 297.339 312.729 274.289L315.358 274.124C316.765 296.43 323.523 312.834 335.461 322.876C350.042 335.147 367.39 333.404 367.561 333.404H367.705H367.85C370.714 333.773 373.625 333.492 376.365 332.581C379.106 331.669 381.606 330.151 383.68 328.14C395.638 317 399.22 291.061 398.675 277.329C398.017 261.859 403.598 217.588 410.245 208.811C416.062 201.119 419.671 166.448 419.711 166.1L419.809 165.113L420.782 164.942C420.841 164.942 426.521 163.862 427.231 159.612C428.152 154.071 444.652 139.589 446.525 137.95L448.241 139.924C441.424 145.846 430.387 156.559 429.834 160.039C429.032 164.856 424.319 166.698 422.242 167.277C421.584 173.042 418.12 202.75 412.381 210.377C406.504 218.148 400.647 260.826 401.304 277.204C401.87 291.403 398.076 318.303 385.474 330.041C381.417 333.982 375.975 336.17 370.322 336.134Z" fill="#353146"/>
<g opacity="0.1">
<path d="M477.297 67.4262C478.375 63.4387 479.677 59.4249 480.584 55.3848C479.5 59.4447 478.191 63.4387 477.297 67.4262Z" fill="black"/>
<path d="M466.299 98.7601C464.985 95.8715 465.688 92.5288 465.714 89.3572C465.741 86.1857 464.57 82.4745 461.52 81.5862C455.42 79.882 451.212 91.272 445.217 89.2125C440.615 87.6398 441.832 80.6584 439.176 76.6249C437.079 73.427 432.878 72.5321 429.617 70.5317C422.662 66.2613 422.873 59.4312 419.652 52.9696C416.266 46.1922 409.134 48.1925 402.928 52.1932C398.214 55.2331 394.158 59.3062 389.123 61.7342C384.764 63.8333 379.867 64.5965 375.035 64.7084C369.152 64.8466 362.749 63.8004 358.706 59.5233C355.59 56.2333 354.466 51.4101 355.11 46.8896C354.998 47.1989 354.9 47.5082 354.801 47.8174C353.223 52.9959 354.144 59.0825 357.832 63.0173C361.875 67.2944 368.277 68.334 374.161 68.2024C378.999 68.0905 383.89 67.3273 388.255 65.2282C393.304 62.7936 397.36 58.7271 402.06 55.6872C408.266 51.6865 415.405 49.6862 418.784 56.4636C422.005 62.9252 421.801 69.7553 428.75 74.0257C432.037 75.9998 436.211 76.921 438.315 80.1189C440.944 84.1656 439.781 91.1338 444.356 92.7065C450.345 94.7594 454.552 83.376 460.652 85.0802C463.703 85.9356 464.879 89.6862 464.846 92.8512C464.814 96.0162 464.13 99.3655 465.432 102.254C470.487 102.024 476.738 100.938 478.204 96.0689C478.406 95.3701 478.499 94.6444 478.481 93.9172C476.344 97.6086 470.848 98.5561 466.299 98.7601Z" fill="black"/>
</g>
<path opacity="0.1" d="M585.108 260.892L592.74 268.972C592.74 268.972 598.847 313.499 601.897 317.664C604.947 321.829 612.152 338.398 605.388 350.841C605.388 350.841 603.205 357.612 604.513 360.448C605.822 363.284 594.705 377.477 594.705 377.477C594.705 377.477 580.092 390.571 577.035 392.539C573.978 394.506 557.846 410.219 552.396 410.436C546.947 410.653 545.165 417.424 545.165 417.424L514.413 418.517C514.413 418.517 497.426 417.628 493.732 420.03C493.732 420.03 495.704 394.052 476.725 377.023L500.93 368.291C500.93 368.291 510.094 364.343 512.927 360.217C514.71 357.688 517.238 355.781 520.158 354.763C520.158 354.763 526.916 349.959 527.133 347.34C527.35 344.721 535.396 341.51 535.396 341.51L530.841 302.589L533.24 237.973C533.24 237.973 540.872 183.833 557.011 186.893C573.15 189.952 585.108 260.892 585.108 260.892Z" fill="black"/>
<path d="M587.737 260.892L595.369 268.972C595.369 268.972 601.476 313.499 604.526 317.664C607.577 321.829 614.782 338.398 608.017 350.841C608.017 350.841 605.841 357.612 607.149 360.448C608.458 363.284 597.335 377.477 597.335 377.477C597.335 377.477 582.721 390.571 579.664 392.539C576.607 394.506 560.475 410.219 555.026 410.436C549.576 410.653 547.795 417.424 547.795 417.424L517.042 418.517C517.042 418.517 500.042 417.628 496.361 420.03C496.361 420.03 498.333 394.052 479.355 377.023L503.559 368.291C503.559 368.291 512.723 364.343 515.557 360.217C517.339 357.688 519.868 355.781 522.788 354.763C522.788 354.763 529.546 349.959 529.763 347.34C529.98 344.721 538.026 341.51 538.026 341.51L533.47 302.589L535.87 237.973C535.87 237.973 543.502 183.833 559.641 186.893C575.779 189.952 587.737 260.892 587.737 260.892Z" fill="#E8F5FF"/>
<path opacity="0.1" d="M559.365 326.166C559.365 326.166 581.827 320.244 587.717 327.482C593.607 334.72 559.365 326.166 559.365 326.166Z" fill="black"/>
<path opacity="0.1" d="M554.132 336.096C561.764 341.445 585.318 341.662 585.318 341.662L554.132 336.096Z" fill="black"/>
<path opacity="0.1" d="M565.688 362.837C566.346 363.054 581.88 379.649 588.401 374.628C594.922 369.608 565.688 362.837 565.688 362.837Z" fill="black"/>
<path opacity="0.1" d="M356.484 223.563C356.484 223.563 361.046 255.003 358.798 267.808C356.55 280.612 364.754 296.477 364.754 296.477L356.484 223.563Z" fill="black"/>
<path d="M255.484 236.349C250.225 240.474 246.386 250.239 243.605 260.971C238.754 279.691 237.169 301.399 237.169 301.399C237.169 301.399 195.294 291.792 198.345 287.429C200.264 284.686 197.687 264.011 195.538 249.022C194.256 240.165 193.112 233.289 193.112 233.289C193.112 233.289 269.881 224.991 255.484 236.349Z" fill="#FFCCD0"/>
<path opacity="0.1" d="M255.484 235.474C250.225 239.606 246.386 249.364 243.605 260.096C235.262 262.632 226.389 262.861 217.926 260.758C209.464 258.656 201.728 254.3 195.538 248.153C194.256 239.29 193.112 232.414 193.112 232.414C193.112 232.414 269.881 224.123 255.484 235.474Z" fill="black"/>
<path d="M277.993 211.957C277.997 223.401 273.956 234.479 266.586 243.228C259.215 251.978 248.989 257.835 237.719 259.763C226.449 261.692 214.86 259.567 205.004 253.766C195.148 247.964 187.66 238.86 183.866 228.063C180.072 217.267 180.216 205.475 184.272 194.775C188.328 184.075 196.036 175.156 206.03 169.597C216.025 164.038 227.662 162.197 238.882 164.4C250.102 166.604 260.181 172.709 267.337 181.636C274.232 190.235 277.991 200.93 277.993 211.957V211.957Z" fill="#FFCCD0"/>
<path opacity="0.1" d="M316.173 515.007H302.368L301.205 490.601L299.989 465.341C299.989 465.341 303.124 464.874 308.121 464.176L310.139 463.906H310.303C311.394 469.032 312.472 474.296 313.511 479.554C315.24 488.887 316.14 498.355 316.2 507.848C316.2 508.506 316.2 509.164 316.2 509.782C316.239 511.539 316.2 513.296 316.173 515.007Z" fill="black"/>
<path d="M313.524 515.007H140.397C141.146 513.302 141.646 512.269 141.646 512.269C141.646 512.269 155.497 451.614 162.537 425.952C162.539 425.93 162.539 425.908 162.537 425.887C163.417 422.401 164.479 418.963 165.719 415.589V415.589C165.799 415.359 165.903 415.139 166.028 414.931C169.512 409.259 173.877 403.146 167.77 394.414C161.663 385.682 163.826 347.262 163.826 347.262C163.826 347.262 171.241 314.513 179.09 297.049C180.281 294.344 181.972 291.889 184.073 289.811C184.756 289.142 185.485 288.522 186.256 287.956V287.956C186.841 287.515 187.451 287.109 188.083 286.738L188.208 286.659C191.505 284.788 195.167 283.65 198.943 283.323C201.625 283.043 204.333 283.118 206.996 283.547C219.723 285.416 229.912 288.541 238.011 292.101C259.961 301.754 266.607 314.69 266.739 314.96L266.791 315.072C267.672 317.132 280.557 347.242 285.198 361.29C286.401 364.949 287.058 367.522 286.795 368.226C285.48 371.713 296.827 415.372 296.827 415.372C296.827 415.372 302.086 436.428 307.345 461.109C307.575 462.136 307.792 463.162 308.002 464.202C308.942 468.683 309.876 473.25 310.776 477.81C312.521 487.207 313.421 496.743 313.465 506.301C313.562 509.28 313.581 512.182 313.524 515.007Z" fill="#FF748E"/>
<path opacity="0.1" d="M197.911 268.308C197.911 268.308 185.966 263.702 186.111 270.69C186.255 277.678 189.023 281.02 188.149 282.04C187.274 283.06 188.582 289.173 188.582 289.173C188.582 289.173 204.721 289.173 212.136 292.516C219.552 295.858 246.885 302.557 250.376 304.597C253.867 306.636 266.811 315.783 266.811 315.783L267.974 298.464C267.974 298.464 254.597 287.403 232.647 281.731C210.697 276.059 197.911 268.308 197.911 268.308Z" fill="black"/>
<path d="M197.911 267.433C197.911 267.433 185.966 262.827 186.111 269.815C186.255 276.803 189.023 280.145 188.149 281.165C187.274 282.185 188.582 288.298 188.582 288.298C188.582 288.298 204.721 288.298 212.136 291.647C219.552 294.997 246.885 301.688 250.376 303.722C253.867 305.755 266.811 314.908 266.811 314.908L267.987 297.642C267.987 297.642 254.61 286.581 232.66 280.909C210.71 275.237 197.911 267.433 197.911 267.433Z" fill="#FF748E"/>
<path opacity="0.1" d="M233.968 309.11C233.968 309.11 256.792 333.845 255.629 340.695C254.465 347.544 233.968 309.11 233.968 309.11Z" fill="black"/>
<path opacity="0.1" d="M196.892 398.461C196.892 398.461 180.162 413.891 175.231 414.766C170.301 415.641 179.011 418.55 184.678 416.227C190.344 413.904 202.427 407.791 202.427 407.791L196.892 398.461Z" fill="black"/>
<path d="M320.321 515.007H281.306C275.85 510.269 270.689 505.88 267.402 503.242C262.143 499.018 258.35 492.799 255.931 487.799C255.385 486.66 254.912 485.594 254.511 484.627C253.793 482.961 253.161 481.259 252.618 479.527L281.51 462.354C283.106 463.713 284.607 465.181 286 466.749L286.348 467.15C287.952 469.045 289.365 471.197 289.49 472.961C289.635 475.014 295.341 482.956 301.172 490.582C307.088 498.34 313.149 505.755 313.55 506.256C313.55 506.256 314.55 507.618 316.18 509.71C317.33 511.223 318.75 513.04 320.321 515.007Z" fill="#FFCCD0"/>
<path opacity="0.1" d="M267.337 181.635C265.95 184.767 264.707 188.018 264.523 191.505C264.004 201.573 264.845 224.083 253.709 229.136C248.194 231.624 242.29 226.162 236.243 226.031C231.891 225.938 227.9 228.702 225.245 232.157C222.589 235.611 220.939 239.71 219.013 243.619C217.259 247.167 215.24 250.576 212.971 253.818C212.293 254.81 211.546 255.754 210.736 256.641C203.946 253.773 197.899 249.391 193.057 243.83C188.215 238.269 184.705 231.674 182.794 224.549C180.884 217.424 180.623 209.957 182.033 202.716C183.442 195.475 186.484 188.652 190.927 182.766C195.371 176.88 201.097 172.087 207.671 168.752C214.245 165.417 221.493 163.628 228.862 163.522C236.232 163.415 243.528 164.994 250.196 168.137C256.863 171.281 262.726 175.906 267.337 181.661V181.635Z" fill="black"/>
<path d="M263.649 189.729C263.123 199.797 263.971 222.307 252.828 227.354C247.313 229.841 241.41 224.386 235.362 224.255C231.01 224.156 227.026 226.926 224.364 230.374C221.701 233.822 220.064 237.928 218.132 241.843C216.378 245.39 214.358 248.8 212.09 252.042C210.736 253.964 209.237 255.892 207.154 256.971C203.525 258.866 199.127 257.8 195.235 256.582C190.187 254.99 185.212 253.196 180.313 251.2C180.425 250.46 180.482 249.712 180.484 248.963C180.339 249.239 180.181 249.496 180.023 249.772L179.714 250.312C179.156 251.299 178.61 252.286 178.11 253.299C177.92 253.687 177.736 254.089 177.571 254.49C176.91 255.984 176.495 257.575 176.342 259.201C176.007 263.59 178.17 267.755 180.089 271.703C187.472 286.976 192.034 304.834 186.479 320.856C184.073 327.825 179.905 334.016 176.861 340.748C171.541 352.67 169.975 365.932 172.372 378.767C173.89 386.742 176.934 394.638 176.184 402.725C174.87 416.642 162.879 426.999 150.869 434.118C144.38 437.948 136.439 441.357 129.55 438.33C133.941 433.197 135.072 426.097 136.018 419.399C138.609 401.128 141.205 382.849 143.808 364.561C144.847 357.283 145.884 350.006 146.918 342.728C148.85 329.055 150.809 315.23 149.6 301.471C148.719 291.332 146.234 280.567 150.625 271.388C152.946 266.525 157.081 262.498 158.369 257.26C159.428 253.003 158.442 248.476 159.138 244.14C159.52 242.167 160.166 240.254 161.058 238.454C162.194 236.012 163.678 233.747 165.462 231.73C163.701 231.216 162.057 230.512 161.058 229.038C163.885 227.196 164.312 223.044 163.03 219.925C161.748 216.806 159.184 214.431 156.877 211.97C154.57 209.509 152.348 206.64 152.058 203.284C151.5 196.895 157.876 191.947 159 185.643C160.138 179.227 155.641 172.99 156.003 166.495C156.423 158.645 163.628 152.94 170.741 149.63C181.475 144.657 193.332 142.614 205.109 143.708C214.694 144.616 223.969 147.584 233.528 148.736C239.293 149.394 245.137 149.459 250.863 150.473C256.588 151.486 262.327 153.625 266.357 157.829C276.98 168.917 264.254 178.043 263.649 189.729Z" fill="#FFE0D0"/>
<path opacity="0.1" d="M254.761 487.805C251.408 486.35 245.308 487.219 234.836 484.028C224.364 480.836 222.346 466.413 222.346 466.413V466.367C222.221 466.038 221.248 463.893 214.661 456.378C207.384 448.081 191.653 406.173 191.653 406.173C191.653 406.173 177.703 391.177 178.143 385.649C178.584 380.122 175.665 365.416 175.954 348.966C176.244 332.516 207.357 321.606 207.357 321.606C267.264 310.979 253.157 380.109 251.56 385.347C249.962 390.584 258.252 404.731 258.252 404.731C257.082 410.89 263.051 420.425 263.051 420.425C263.051 420.425 264.497 428.86 264.793 432.065C264.809 432.213 264.842 432.359 264.891 432.499C265.851 435.52 273.674 438.257 276.856 439.922C280.202 441.672 290.963 456.951 290.963 456.951C293.283 468.17 258.1 489.278 254.761 487.805Z" fill="black"/>
<path d="M256.503 485.173C253.157 483.712 247.05 484.587 236.584 481.389C226.119 478.192 224.094 463.781 224.094 463.781V463.735C223.976 463.4 222.996 461.261 216.409 453.747C209.132 445.449 193.401 403.534 193.401 403.534C193.401 403.534 179.452 388.545 179.885 383.018C180.319 377.491 177.414 362.784 177.703 346.347C177.992 329.91 209.086 319.007 209.086 319.007C268.993 308.38 254.886 377.51 253.288 382.748C251.691 387.986 259.981 402.133 259.981 402.133C258.81 408.292 264.779 417.826 264.779 417.826C264.779 417.826 266.226 426.262 266.528 429.466C266.539 429.615 266.57 429.761 266.62 429.901C267.58 432.921 275.403 435.658 278.591 437.323C281.93 439.067 292.698 454.352 292.698 454.352C295.032 465.551 259.849 486.66 256.503 485.173Z" fill="#FF748E"/>
<path opacity="0.1" d="M210.27 355.099C210.27 355.099 236.44 382.735 243.27 382.735C250.1 382.735 210.27 355.099 210.27 355.099Z" fill="black"/>
<path d="M256.503 485.173C253.157 483.712 247.05 484.587 236.584 481.389C226.119 478.191 224.094 463.781 224.094 463.781V463.735C231.03 459.129 248.595 446.12 255.517 441.363C260.388 438.027 264.365 433.125 266.692 429.874C267.652 432.894 275.475 435.632 278.663 437.296C282.003 439.04 292.771 454.325 292.771 454.325C295.032 465.551 259.849 486.66 256.503 485.173Z" fill="#FF748E"/>
<g opacity="0.1">
<path d="M161.097 229.11C161.13 229.163 161.176 229.209 161.216 229.261C161.413 229.011 161.617 228.761 161.827 228.524C161.603 228.742 161.359 228.939 161.097 229.11V229.11Z" fill="black"/>
<path d="M176.349 259.274C176.625 255.622 178.577 252.404 180.405 249.193C179.208 248.733 178.012 248.265 176.829 247.778C176.941 247.04 176.998 246.295 176.999 245.548C175.152 248.838 173.141 252.075 172.858 255.78C172.523 260.175 174.686 264.334 176.605 268.282C183.994 283.548 188.55 301.406 182.995 317.435C180.582 324.396 176.421 330.595 173.377 337.326C168.059 349.247 166.495 362.507 168.894 375.339C170.399 383.321 173.45 391.21 172.7 399.297C171.385 413.214 159.401 423.571 147.385 430.684C142.474 433.592 136.735 436.257 131.246 436.066C130.738 436.885 130.171 437.666 129.55 438.402C136.446 441.449 144.38 438.021 150.869 434.178C162.892 427.071 174.902 416.741 176.217 402.798C176.967 394.711 173.916 386.821 172.404 378.84C170.004 366.008 171.564 352.75 176.875 340.827C179.899 334.102 184.106 327.897 186.492 320.935C192.047 304.906 187.485 287.048 180.102 271.782C178.189 267.808 176.013 263.669 176.349 259.274Z" fill="black"/>
<path d="M266.344 157.908C265.697 157.244 265.003 156.628 264.267 156.065C272.234 166.409 260.73 175.2 260.158 186.334C259.645 196.401 260.487 218.918 249.344 223.958C243.835 226.452 237.926 220.991 231.884 220.859C227.526 220.767 223.542 223.537 220.88 226.985C218.217 230.433 216.58 234.539 214.654 238.448C212.897 241.994 210.875 245.404 208.606 248.647C207.292 250.575 205.753 252.496 203.663 253.582C200.047 255.47 195.649 254.411 191.751 253.187C187.96 251.994 184.204 250.678 180.484 249.239C180.476 249.924 180.419 250.608 180.313 251.285C185.217 253.286 190.193 255.08 195.242 256.668C199.134 257.892 203.531 258.951 207.154 257.062C209.237 255.977 210.749 254.049 212.097 252.121C214.368 248.883 216.387 245.475 218.138 241.928C220.071 238.02 221.701 233.907 224.37 230.459C227.039 227.011 231.016 224.248 235.368 224.34C241.416 224.472 247.326 229.933 252.835 227.439C263.977 222.399 263.129 199.882 263.649 189.814C264.254 178.109 276.98 168.989 266.344 157.908Z" fill="black"/>
</g>
<path opacity="0.1" d="M179.721 250.318C179.162 251.305 178.617 252.292 178.117 253.305C177.926 253.693 177.742 254.095 177.578 254.496C174.133 251.022 165.745 242.764 161.065 240.204C162.203 237.763 163.686 235.498 165.469 233.479C165.469 233.479 176.625 239.382 179.721 250.318Z" fill="black"/>
<path d="M180.03 249.779C177.447 238.073 165.469 231.736 165.469 231.736C163.685 233.754 162.201 236.019 161.065 238.461C166.002 241.166 175.1 250.233 178.117 253.306L180.03 249.779Z" fill="#FF748E"/>
</g>
<defs>
<linearGradient id="paint0_linear_8_7" x1="479.907" y1="62.7806" x2="479.907" y2="50.6865" gradientUnits="userSpaceOnUse">
<stop stop-color="#808080" stop-opacity="0.25"/>
<stop offset="0.54" stop-color="#808080" stop-opacity="0.12"/>
<stop offset="1" stop-color="#808080" stop-opacity="0.1"/>
</linearGradient>
<linearGradient id="paint1_linear_8_7" x1="369.993" y1="515.007" x2="369.993" y2="6.54402e-05" gradientUnits="userSpaceOnUse">
<stop stop-color="#808080" stop-opacity="0.25"/>
<stop offset="0.54" stop-color="#808080" stop-opacity="0.12"/>
<stop offset="1" stop-color="#808080" stop-opacity="0.1"/>
</linearGradient>
<clipPath id="clip0_8_7">
<rect width="714" height="515" fill="white"/>
</clipPath>
</defs>
</svg>
