<svg xmlns="http://www.w3.org/2000/svg" viewBox="0 0 445 100" class="svg-logo" width="445" height="132" style="height: auto;"><g data-element="wrapper"><g><g data-element="icon" transform="scale(0.151604723071529)"><path id="color_x5F_3_2_" fill="#1A315B" d="M383.708,600h-44.154C95.511,470.8,36.225,193.755,36.225,193.755    C179.782,141.118,264.976,2.291,264.976,2.291c7.26-0.908,21.395-1.665,27.676-2.291c-9.257,19.755-76.972,148.918-219.443,205.332    C73.21,205.332,136.319,473.06,383.708,600z"></path><path id="color_x5F_2_4_" fill="#F7941D" d="M563.775,78.092c-79.779,59.834-172.762,299.264-172.762,299.264    c-43.321-50.539-101.027-72.617-101.027-72.617c15.884-15.884,33.449-35.512,48.956-32.638    c25.843,4.795,42.767,41.244,42.767,41.244C435.041,157.871,563.775,78.092,563.775,78.092z"></path><path id="color_x5F_1_4_" fill="#0BAAAA" d="M521.628,123.248c18.136,5.385,29.535,7.808,29.535,7.808    C546.379,466.017,412.393,600,412.393,600c-244.042-129.2-306.25-392.382-306.25-392.382    C249.701,154.981,316.691,1.856,316.691,1.856c46.602,58.254,123.342,93.458,176.267,112.091    c-29.71,22.474-56.425,52.98-75.034,76.79l-4.522-41.515c-70.889,10.365-111.266,17.863-111.266,17.863l10.631,86.661    l-89.708,20.139c0,0,7.808,59.081,29.568,101.39l74.847-8.16l15.816,93.988c60.447-8.506,99.125-22.969,99.125-22.969l-4.701-98.284    l55.922-16.485c8.495-51.264,1.968-91.943,1.968-91.943l-41.895,6.26C474.058,197.412,497.616,155.653,521.628,123.248z"></path></g><text fill="rgba(193, 210, 248, 1.0)" font-family="Iceland" font-size="64" data-element="company-name" dx="0 0 0 0 0 0" transform="translate(106.7890625 70)">TapMed</text></g></g></svg>