<svg width="100%" height="100%" viewBox="0 0 791 550" fill="none" xmlns="http://www.w3.org/2000/svg">
<path opacity="0.85" d="M173.073 4.64717L173.073 4.6472C215.108 13.0146 254.366 29.141 293.51 45.2203C300.429 48.0622 307.343 50.9026 314.269 53.6984C360.361 72.3046 408.766 89.3422 459.569 91.1765L459.587 90.6768L459.569 91.1765C504.403 92.7903 556.808 80.6918 586.671 49.1223C600.997 33.9839 621.651 25.813 643.627 23.7331C665.602 21.6533 688.857 25.6691 708.336 34.8562L708.549 34.404L708.336 34.8563C745.51 52.3721 769.512 89.4139 767.703 126.354C766.388 153.264 753.243 177.078 736.628 200.123C730.04 209.261 722.917 218.263 715.778 227.286C713.915 229.641 712.051 231.997 710.195 234.357C701.232 245.755 692.463 257.243 684.96 269.101C670.973 291.198 660.987 317.897 670.688 341.928C679.496 363.729 701.296 377.115 723.838 390.04C725.223 390.834 726.61 391.626 727.998 392.418C737.933 398.09 747.883 403.77 756.864 410.141C767.096 417.399 776.037 425.531 782.233 435.522C796.99 459.322 791.537 491.478 769.492 510.483C752.099 525.47 727.324 531.704 703.217 535.645C659.835 542.742 615.531 544.112 571.384 545.474C452.11 549.135 332.538 552.796 213.611 544.347C159.875 540.489 104.855 533.759 58.182 510.271C35.193 498.693 14.073 482.256 5.21964 460.483C-3.70773 438.514 0.999991 413.786 11.253 392.129C18.4908 376.842 28.2878 362.707 38.1213 348.519C42.2333 342.586 46.3516 336.644 50.2919 330.605C78.7291 287.05 97.4113 231.891 71.0381 187.089L70.6072 187.342L71.0381 187.088C67.8851 181.734 64.146 176.65 60.4285 171.596C59.6834 170.583 58.9392 169.572 58.2008 168.559C53.769 162.482 49.5366 156.368 46.4895 149.737C37.7381 130.63 39.5819 109.128 42.8076 88.5679C47.0958 61.2498 55.0486 31.9931 79.5507 15.0616L79.5508 15.0615C105.024 -2.54982 141.259 -1.69514 173.073 4.64717Z" fill="white" stroke="black"/>
<g clip-path="url(#clip0_0_1)">
<path d="M631.948 360.873C628.243 364.947 623.649 367.98 618.664 370.334H618.658C618.189 370.558 617.72 370.776 617.245 370.982H617.239L617.233 370.988L617.227 370.982H617.221C617.221 370.983 617.221 370.984 617.221 370.984C617.22 370.985 617.22 370.986 617.219 370.986C617.219 370.987 617.218 370.987 617.217 370.988C617.217 370.988 617.216 370.988 617.215 370.988H617.209L617.203 370.982C617.197 370.988 617.197 370.988 617.191 370.982L617.185 370.988L617.179 370.982H617.173C617.167 370.988 617.167 370.988 617.161 370.982H617.155C613.818 372.435 610.392 373.668 606.896 374.674C586.343 380.544 564.74 381.68 543.691 377.997C543.288 377.925 542.891 377.852 542.489 377.78V328.683C542.885 328.513 543.288 328.344 543.691 328.18C546.319 327.085 548.979 326.078 551.671 325.16C555.543 323.828 559.47 322.686 563.451 321.734C576.438 318.57 589.838 317.479 603.162 318.502C605.586 318.683 608.003 318.945 610.414 319.288C615.459 319.997 620.751 321.232 625.405 323.374H625.411C626.091 323.695 626.758 324.028 627.42 324.385C631.557 326.643 635.044 329.748 637.173 334.004C637.938 335.532 638.488 337.159 638.809 338.84V338.852C638.929 339.433 639.013 340.02 639.079 340.601C639.837 347.768 636.884 355.438 631.948 360.873Z" fill="#F2F2F2"/>
<path d="M639.079 340.602C639.02 340.617 638.96 340.625 638.899 340.626C628.598 341.08 618.312 341.754 608.039 342.648H608.021C607.979 342.654 607.943 342.654 607.901 342.66C597.353 343.58 586.828 344.732 576.325 346.116C575.88 346.177 575.441 346.237 575.002 346.292C567.738 347.266 560.488 348.348 553.252 349.536C550.059 350.063 546.872 350.612 543.691 351.183C543.288 351.255 542.891 351.322 542.489 351.401V349.567C542.891 349.488 543.294 349.421 543.691 349.349C554.287 347.46 564.918 345.812 575.585 344.403C578.267 344.04 580.953 343.697 583.643 343.374C591.412 342.43 599.193 341.615 606.986 340.929C607.558 340.88 608.123 340.832 608.694 340.783C618.67 339.93 628.66 339.282 638.664 338.84C638.713 338.838 638.761 338.842 638.809 338.853C639.771 338.937 639.975 340.39 639.079 340.602Z" fill="white"/>
<path d="M617.688 369.199C604.856 369.294 592.214 363.817 583.137 354.751C580.576 352.183 578.319 349.325 576.412 346.234C575.8 345.246 574.369 346.335 574.975 347.315C582.024 358.695 593.766 366.801 606.712 369.782C610.388 370.621 614.149 371.026 617.918 370.989C619.069 370.981 618.831 369.191 617.688 369.199V369.199Z" fill="white"/>
<path d="M563.451 321.734C563.396 321.905 563.297 322.057 563.165 322.177C563.033 322.297 562.873 322.38 562.699 322.418C559.758 323.194 556.917 324.311 554.233 325.748C550.312 327.832 546.753 330.54 543.691 333.768C543.529 333.931 543.373 334.095 543.222 334.264C542.969 334.531 542.729 334.803 542.489 335.081V332.442C542.873 332.031 543.276 331.625 543.691 331.238C546.108 328.908 548.786 326.869 551.671 325.16C555.543 323.829 559.47 322.687 563.451 321.734Z" fill="white"/>
<path d="M626.468 322.898C618.306 326.429 611.476 332.491 606.973 340.201C606.881 340.421 606.88 340.669 606.969 340.891C607.059 341.112 607.231 341.289 607.449 341.384C607.669 341.471 607.913 341.47 608.132 341.38C608.351 341.291 608.527 341.12 608.624 340.904C612.922 333.622 619.407 327.903 627.143 324.57C628.204 324.114 627.532 322.44 626.469 322.898L626.468 322.898Z" fill="white"/>
<path d="M651.076 271.487C649.68 276.826 647.005 281.662 643.679 286.075L643.673 286.081C643.367 286.493 643.048 286.91 642.717 287.31V287.316C640.409 290.179 637.916 292.887 635.255 295.421C625.69 304.597 614.885 312.367 603.162 318.502C584.72 328.199 564.106 333.931 543.691 334.258C543.535 334.264 543.378 334.264 543.222 334.264C542.976 334.27 542.729 334.27 542.489 334.27V306.759C542.879 306.008 543.282 305.257 543.691 304.513C548.997 294.903 555.466 285.994 562.952 277.988C563.132 277.788 563.318 277.589 563.505 277.395C566.319 274.405 569.269 271.558 572.356 268.854C584.231 258.344 597.955 250.162 612.819 244.732C617.612 243.001 622.867 241.615 627.979 241.343C628.73 241.3 629.476 241.282 630.228 241.288C634.936 241.355 639.452 242.475 643.307 245.247C644.687 246.245 645.925 247.428 646.987 248.764C647.359 249.23 647.702 249.708 648.033 250.198V250.204C652.014 256.197 652.94 264.363 651.076 271.487Z" fill="#F2F2F2"/>
<path d="M648.033 250.199V250.205C647.988 250.244 647.94 250.279 647.889 250.308C638.989 255.52 630.202 260.921 621.526 266.512C621.514 266.518 621.509 266.524 621.497 266.53C621.462 266.555 621.426 266.577 621.388 266.597C612.471 272.347 603.679 278.292 595.014 284.429C594.653 284.684 594.287 284.944 593.92 285.204C587.937 289.459 582.016 293.806 576.157 298.243C565.092 306.632 554.27 315.332 543.691 324.343C543.288 324.682 542.891 325.027 542.489 325.373V323.018C542.885 322.673 543.288 322.328 543.691 321.989C547.744 318.545 551.833 315.149 555.958 311.801C557.191 310.803 558.429 309.804 559.668 308.817C570.673 299.998 581.923 291.507 593.421 283.346H593.427C595.688 281.742 597.953 280.152 600.221 278.576C606.668 274.109 613.186 269.749 619.777 265.495C620.252 265.187 620.733 264.878 621.214 264.569C629.651 259.146 638.197 253.9 646.854 248.831C646.897 248.805 646.941 248.783 646.987 248.765C647.889 248.401 648.736 249.6 648.033 250.199Z" fill="white"/>
<path d="M642.289 285.526C630.969 291.611 617.246 292.672 605.025 288.887C601.572 287.811 598.255 286.335 595.139 284.49C594.141 283.902 593.377 285.535 594.366 286.119C605.86 292.9 619.999 294.589 632.838 291.175C636.481 290.199 639.998 288.799 643.319 287.004C644.335 286.458 643.297 284.984 642.289 285.526V285.526Z" fill="white"/>
<path d="M557.594 307.674C557.034 304.506 556.842 301.282 557.022 298.069C557.427 290.74 559.656 283.631 563.504 277.397C566.322 274.408 569.273 271.56 572.358 268.854C572.387 269.031 572.37 269.213 572.308 269.381C572.246 269.549 572.142 269.699 572.005 269.814C569.761 271.876 567.761 274.193 566.045 276.719C559.919 285.72 557.527 296.774 559.381 307.525C559.411 307.646 559.41 307.774 559.377 307.895C559.344 308.016 559.28 308.127 559.193 308.216C559.064 308.329 558.908 308.406 558.741 308.439C558.574 308.473 558.401 308.462 558.239 308.407C558.078 308.352 557.933 308.255 557.82 308.127C557.707 307.998 557.629 307.842 557.594 307.674Z" fill="white"/>
<path d="M628.699 240.418C623.1 247.362 619.849 255.924 619.419 264.857C619.44 265.095 619.553 265.315 619.734 265.47C619.916 265.624 620.15 265.7 620.387 265.682C620.621 265.656 620.837 265.541 620.99 265.36C621.142 265.178 621.22 264.945 621.206 264.708C621.652 256.249 624.755 248.152 630.068 241.584C630.797 240.683 629.43 239.516 628.699 240.418Z" fill="white"/>
<path d="M566.427 260.307V260.313C566.385 260.834 566.337 261.348 566.283 261.863V261.875C565.865 265.537 565.212 269.169 564.329 272.746C563.908 274.502 563.451 276.245 562.952 277.988C562.892 278.212 562.825 278.436 562.759 278.654V278.66C561.29 283.73 559.536 288.712 557.504 293.581C553.765 302.545 549.137 311.108 543.691 319.137C543.3 319.724 542.898 320.312 542.489 320.893V226.101C542.891 226.077 543.288 226.077 543.691 226.089C543.883 226.089 544.076 226.095 544.268 226.107C545.965 226.197 547.641 226.525 549.248 227.082C549.813 227.269 550.36 227.481 550.901 227.717C557.461 230.611 562.615 236.991 564.852 244.006C566.529 249.26 566.866 254.787 566.427 260.307Z" fill="#F2F2F2"/>
<path d="M550.901 227.717C550.887 227.777 550.865 227.834 550.835 227.887C548.4 232.65 546.018 237.438 543.691 242.251C543.288 243.08 542.885 243.915 542.489 244.745V240.628C542.885 239.805 543.286 238.982 543.691 238.159C545.489 234.491 547.317 230.839 549.175 227.203C549.196 227.16 549.22 227.12 549.248 227.082C549.801 226.283 551.172 226.827 550.901 227.717Z" fill="white"/>
<path d="M566.62 261.282C566.512 261.475 566.403 261.669 566.283 261.863C564.517 264.96 562.416 267.851 560.017 270.482C555.41 275.514 549.862 279.58 543.691 282.449C543.294 282.643 542.891 282.825 542.489 282.994V281.027C542.891 280.845 543.294 280.658 543.691 280.464C552.624 276.175 560.044 269.244 564.96 260.598C565.031 260.474 565.127 260.368 565.243 260.285C565.358 260.202 565.49 260.146 565.629 260.119C565.768 260.092 565.912 260.095 566.049 260.129C566.187 260.162 566.316 260.225 566.427 260.313C566.503 260.364 566.568 260.429 566.619 260.506C566.67 260.582 566.705 260.667 566.723 260.757C566.741 260.847 566.741 260.94 566.723 261.03C566.705 261.12 566.67 261.205 566.62 261.282Z" fill="white"/>
<path d="M543.691 151.975V197.979H542.488V197.488H140.203V197.979H139V151.975C139.005 146.679 141.097 141.601 144.818 137.856C148.538 134.111 153.582 132.005 158.844 132H523.847C529.109 132.005 534.153 134.111 537.873 137.856C541.594 141.601 543.686 146.679 543.691 151.975Z" fill="#19193F"/>
<path d="M523.847 132H158.844C153.582 132.005 148.538 134.111 144.818 137.856C141.097 141.601 139.005 146.679 139 151.975V414.68C139.005 419.976 141.097 425.054 144.818 428.798C148.538 432.543 153.582 434.65 158.844 434.655H523.847C529.109 434.65 534.153 432.543 537.873 428.798C541.594 425.054 543.686 419.976 543.691 414.68V151.975C543.686 146.679 541.594 141.601 537.873 137.856C534.153 134.111 529.109 132.005 523.847 132ZM542.488 414.68C542.482 419.654 540.516 424.424 537.022 427.941C533.527 431.459 528.789 433.438 523.847 433.444H158.844C153.902 433.438 149.164 431.459 145.669 427.941C142.175 424.424 140.209 419.654 140.203 414.68V151.975C140.209 147 142.175 142.231 145.669 138.714C149.164 135.196 153.902 133.217 158.844 133.211H523.847C528.789 133.217 533.527 135.196 537.022 138.714C540.516 142.231 542.482 147 542.488 151.975V414.68Z" fill="#3F3D56"/>
<path d="M220.78 177.095C227.422 177.095 232.807 171.675 232.807 164.989C232.807 158.303 227.422 152.883 220.78 152.883C214.138 152.883 208.754 158.303 208.754 164.989C208.754 171.675 214.138 177.095 220.78 177.095Z" fill="white"/>
<path d="M461.911 177.095C468.553 177.095 473.937 171.675 473.937 164.989C473.937 158.303 468.553 152.883 461.911 152.883C455.269 152.883 449.885 158.303 449.885 164.989C449.885 171.675 455.269 177.095 461.911 177.095Z" fill="white"/>
<path d="M255.527 299.975H183.984C180.953 299.971 178.047 298.758 175.904 296.6C173.761 294.443 172.555 291.518 172.552 288.467V254.429C172.555 251.378 173.761 248.453 175.904 246.295C178.047 244.138 180.953 242.924 183.984 242.921H255.527C258.558 242.924 261.464 244.138 263.607 246.295C265.75 248.453 266.956 251.378 266.959 254.429V288.467C266.956 291.518 265.75 294.443 263.607 296.6C261.464 298.758 258.558 299.971 255.527 299.975Z" fill="#19193F"/>
<path d="M377.235 299.975H305.691C302.66 299.971 299.755 298.758 297.611 296.6C295.468 294.443 294.263 291.518 294.259 288.467V254.429C294.263 251.378 295.468 248.453 297.611 246.295C299.755 244.138 302.66 242.924 305.691 242.921H377.235C380.265 242.924 383.171 244.138 385.314 246.295C387.458 248.453 388.663 251.378 388.667 254.429V288.467C388.663 291.518 387.458 294.443 385.314 296.6C383.171 298.758 380.265 299.971 377.235 299.975Z" fill="#19193F"/>
<path d="M377.235 387.92H305.691C302.569 387.917 299.575 386.667 297.367 384.444C295.158 382.221 293.916 379.207 293.913 376.064V342.025C293.916 338.882 295.158 335.868 297.367 333.646C299.575 331.423 302.569 330.172 305.691 330.169H377.235C380.357 330.172 383.351 331.423 385.559 333.646C387.767 335.868 389.009 338.882 389.013 342.025V376.064C389.009 379.207 387.767 382.221 385.559 384.444C383.351 386.667 380.357 387.917 377.235 387.92Z" fill="#F2F2F2"/>
<path d="M255.293 387.92H183.749C180.627 387.917 177.633 386.667 175.425 384.444C173.217 382.221 171.974 379.207 171.971 376.064V342.025C171.974 338.882 173.217 335.868 175.425 333.646C177.633 331.423 180.627 330.172 183.749 330.169H255.293C258.415 330.172 261.409 331.423 263.617 333.646C265.826 335.868 267.068 338.882 267.071 342.025V376.064C267.068 379.207 265.826 382.221 263.617 384.444C261.409 386.667 258.415 387.917 255.293 387.92Z" fill="#F2F2F2"/>
<path d="M498.942 387.92H427.398C424.276 387.917 421.282 386.667 419.074 384.444C416.865 382.221 415.623 379.207 415.62 376.064V342.025C415.623 338.882 416.865 335.868 419.074 333.646C421.282 331.423 424.276 330.172 427.398 330.169H498.942C502.064 330.172 505.058 331.423 507.266 333.646C509.474 335.868 510.716 338.882 510.72 342.025V376.064C510.717 379.207 509.474 382.221 507.266 384.444C505.058 386.667 502.064 387.917 498.942 387.92Z" fill="#F2F2F2"/>
<path d="M498.942 300.043H427.398C424.276 300.039 421.282 298.789 419.074 296.566C416.865 294.343 415.623 291.33 415.62 288.186V254.148C415.623 251.004 416.865 247.99 419.074 245.768C421.282 243.545 424.276 242.295 427.398 242.291H498.942C502.064 242.295 505.058 243.545 507.266 245.768C509.474 247.99 510.716 251.004 510.72 254.148V288.186C510.717 291.33 509.474 294.343 507.266 296.566C505.058 298.789 502.064 300.039 498.942 300.043Z" fill="#F2F2F2"/>
<path d="M219.756 290.976C230.47 290.976 239.156 282.233 239.156 271.447C239.156 260.662 230.47 251.919 219.756 251.919C209.042 251.919 200.356 260.662 200.356 271.447C200.356 282.233 209.042 290.976 219.756 290.976Z" fill="white"/>
<path d="M217.833 278.897C217.396 278.898 216.971 278.756 216.622 278.492L216.6 278.476L212.041 274.962C211.83 274.799 211.652 274.596 211.519 274.364C211.386 274.133 211.299 273.877 211.264 273.611C211.229 273.345 211.246 273.075 211.315 272.817C211.383 272.558 211.502 272.315 211.664 272.102C211.826 271.89 212.028 271.711 212.258 271.577C212.488 271.443 212.743 271.356 213.007 271.321C213.271 271.286 213.539 271.304 213.796 271.373C214.053 271.442 214.294 271.562 214.505 271.725L217.458 274.004L224.437 264.843C224.598 264.631 224.8 264.452 225.031 264.318C225.261 264.184 225.515 264.097 225.779 264.062C226.043 264.027 226.311 264.045 226.568 264.114C226.824 264.183 227.065 264.303 227.276 264.466L227.233 264.525L227.278 264.467C227.703 264.796 227.982 265.282 228.052 265.818C228.122 266.354 227.979 266.896 227.652 267.325L219.444 278.101C219.254 278.35 219.01 278.551 218.731 278.689C218.451 278.827 218.144 278.898 217.833 278.897Z" fill="#19193F"/>
<path d="M341.809 290.695C352.523 290.695 361.209 281.952 361.209 271.167C361.209 260.382 352.523 251.639 341.809 251.639C331.095 251.639 322.409 260.382 322.409 271.167C322.409 281.952 331.095 290.695 341.809 290.695Z" fill="white"/>
<path d="M339.886 278.617C339.45 278.617 339.025 278.475 338.676 278.212L338.654 278.196L334.095 274.682C333.668 274.353 333.389 273.867 333.319 273.331C333.248 272.795 333.392 272.253 333.719 271.823C334.046 271.394 334.528 271.113 335.061 271.042C335.594 270.971 336.132 271.116 336.559 271.445L339.512 273.724L346.49 264.563C346.652 264.35 346.854 264.172 347.084 264.038C347.315 263.904 347.569 263.817 347.832 263.782C348.096 263.747 348.364 263.765 348.621 263.834C348.878 263.903 349.119 264.023 349.33 264.186L349.287 264.245L349.331 264.186C349.757 264.516 350.036 265.002 350.106 265.538C350.176 266.074 350.032 266.616 349.706 267.045L341.498 277.821C341.308 278.069 341.064 278.27 340.784 278.408C340.505 278.546 340.197 278.618 339.886 278.617Z" fill="#19193F"/>
<path d="M472.923 363.319C473.56 362.618 474.037 361.784 474.319 360.877C474.602 359.97 474.683 359.011 474.558 358.069C474.433 357.127 474.104 356.224 473.595 355.423C473.086 354.623 472.408 353.944 471.61 353.436L460.779 295.222L447.608 300.138L462.396 355.815C461.636 357.221 461.415 358.859 461.775 360.418C462.135 361.977 463.05 363.349 464.348 364.274C465.646 365.199 467.235 365.612 468.815 365.437C470.396 365.261 471.857 364.507 472.923 363.319Z" fill="#A0616A"/>
<path d="M367.82 274.49C367.853 274.851 367.857 275.215 367.833 275.577L393.444 295.419L400.706 292.417L406.64 302.858L394.296 309.43C393.299 309.961 392.157 310.152 391.043 309.974C389.929 309.797 388.902 309.26 388.116 308.445L362.517 281.878C361.162 282.186 359.746 282.071 358.458 281.549C357.169 281.026 356.069 280.122 355.304 278.955C354.538 277.788 354.144 276.414 354.173 275.016C354.203 273.618 354.654 272.262 355.468 271.129C356.281 269.995 357.418 269.138 358.727 268.671C360.037 268.204 361.456 268.149 362.797 268.514C364.138 268.879 365.337 269.646 366.234 270.713C367.131 271.781 367.685 273.098 367.82 274.49H367.82Z" fill="#A0616A"/>
<path d="M427.652 466.645H420.281L416.773 444.074L427.654 444.075L427.652 466.645Z" fill="#A0616A"/>
<path d="M429.533 473.839L405.762 473.838V473.535C405.762 472.312 406.001 471.101 406.466 469.971C406.931 468.841 407.613 467.814 408.472 466.949C409.331 466.085 410.351 465.399 411.474 464.931C412.596 464.463 413.799 464.222 415.014 464.222H415.015L429.533 464.222L429.533 473.839Z" fill="#2F2E41"/>
<path d="M455.313 466.645H447.942L444.434 444.074L455.315 444.075L455.313 466.645Z" fill="#A0616A"/>
<path d="M457.194 473.839L433.423 473.838V473.535C433.423 472.312 433.662 471.101 434.127 469.971C434.592 468.841 435.274 467.814 436.133 466.949C436.992 466.085 438.012 465.399 439.134 464.931C440.257 464.463 441.46 464.222 442.675 464.222H442.676L457.194 464.222L457.194 473.839Z" fill="#2F2E41"/>
<path d="M418.75 462.184C418.077 462.185 417.428 461.932 416.93 461.476C416.432 461.02 416.121 460.393 416.059 459.719L409.635 372.742L409.938 372.717L454.148 369.06L454.16 369.376L457.674 459.477C457.688 459.843 457.628 460.208 457.498 460.55C457.369 460.892 457.172 461.204 456.919 461.468C456.667 461.732 456.364 461.942 456.029 462.085C455.694 462.228 455.334 462.302 454.97 462.302H446.302C445.655 462.305 445.028 462.073 444.537 461.649C444.046 461.225 443.723 460.637 443.627 459.993L431.856 387.207C431.844 387.132 431.805 387.064 431.746 387.016C431.687 386.969 431.612 386.946 431.537 386.951C431.461 386.957 431.391 386.991 431.339 387.046C431.288 387.102 431.259 387.175 431.258 387.251L430.724 459.115C430.718 459.809 430.45 460.475 429.974 460.977C429.498 461.479 428.849 461.779 428.16 461.816L418.895 462.18C418.846 462.183 418.798 462.184 418.75 462.184Z" fill="#2F2E41"/>
<path d="M426.296 262.823C434.453 262.823 441.065 256.167 441.065 247.956C441.065 239.745 434.453 233.089 426.296 233.089C418.139 233.089 411.527 239.745 411.527 247.956C411.527 256.167 418.139 262.823 426.296 262.823Z" fill="#A0616A"/>
<path d="M429.155 378.289C422.699 378.27 416.275 377.386 410.052 375.661C409.453 375.485 408.932 375.107 408.578 374.591C408.223 374.074 408.057 373.45 408.106 372.824C410.094 342.744 410.562 319.401 406.381 303.25C404.599 296.367 405.408 289.117 408.6 283.36C413.405 274.696 422.236 269.423 431.655 269.605C432.105 269.614 432.56 269.63 433.019 269.654C447.314 270.395 458.453 283.413 457.85 298.673L454.975 371.412C454.964 371.943 454.798 372.459 454.497 372.894C454.195 373.33 453.773 373.666 453.282 373.86C445.568 376.781 437.396 378.281 429.155 378.289Z" fill="#3F3D56"/>
<path d="M408.811 308.835L397.748 295.189C397.434 294.801 397.206 294.349 397.08 293.864C396.954 293.379 396.934 292.872 397.021 292.379C397.107 291.885 397.298 291.416 397.581 291.004C397.864 290.591 398.231 290.245 398.659 289.988L413.645 280.999C415.627 279.389 418.163 278.636 420.697 278.905C423.23 279.174 425.554 280.444 427.159 282.435C428.764 284.427 429.518 286.978 429.258 289.529C428.997 292.079 427.742 294.422 425.768 296.043L414.055 308.98C413.72 309.35 413.309 309.644 412.851 309.84C412.393 310.036 411.898 310.13 411.4 310.116C410.903 310.103 410.414 309.981 409.967 309.76C409.52 309.539 409.126 309.224 408.811 308.835Z" fill="#3F3D56"/>
<path d="M443.613 307.124C443.158 306.919 442.753 306.618 442.425 306.241C442.096 305.864 441.853 305.421 441.71 304.941L436.73 288.17C435.649 285.848 435.527 283.189 436.39 280.777C437.254 278.364 439.033 276.395 441.338 275.301C443.642 274.206 446.283 274.077 448.682 274.941C451.081 275.804 453.042 277.59 454.134 279.907L463.765 294.549C464.04 294.966 464.222 295.439 464.299 295.934C464.376 296.429 464.346 296.935 464.212 297.418C464.077 297.9 463.84 298.348 463.518 298.73C463.196 299.112 462.796 299.42 462.345 299.632L446.498 307.099C446.047 307.312 445.556 307.424 445.058 307.429C444.56 307.433 444.067 307.329 443.613 307.124Z" fill="#3F3D56"/>
<path d="M433.594 260.155L422.646 257.632C421.517 257.372 420.16 256.876 420.004 255.72C419.793 254.168 422.013 253.086 421.808 251.533C421.61 250.028 419.588 249.834 418.146 249.39C416.803 248.916 415.696 247.934 415.06 246.653C414.423 245.372 414.307 243.892 414.735 242.526C413.175 244.739 409.611 244.928 407.587 243.135C405.564 241.342 405.176 238.089 406.391 235.667C407.047 234.477 407.974 233.46 409.094 232.699C410.215 231.937 411.498 231.452 412.84 231.284C415.537 230.976 418.264 231.488 420.671 232.754C420.831 231.039 422.958 230.343 424.669 230.328C428.224 230.37 431.678 231.526 434.549 233.636C437.421 235.746 439.567 238.704 440.691 242.099C442.79 248.91 441.386 256.376 435.511 260.361L433.594 260.155Z" fill="#2F2E41"/>
<path d="M543.864 474H314.76C314.6 474 314.447 473.936 314.334 473.822C314.222 473.709 314.158 473.555 314.158 473.394C314.158 473.234 314.222 473.08 314.334 472.966C314.447 472.853 314.6 472.789 314.76 472.789H543.864C544.023 472.789 544.176 472.853 544.289 472.966C544.402 473.08 544.465 473.234 544.465 473.394C544.465 473.555 544.402 473.709 544.289 473.822C544.176 473.936 544.023 474 543.864 474Z" fill="#3F3D56"/>
</g>
<defs>
<clipPath id="clip0_0_1">
<rect width="513" height="342" fill="white" transform="translate(139 132)"/>
</clipPath>
</defs>
</svg>
