<svg width="714" height="479" viewBox="0 0 714 479" fill="none" xmlns="http://www.w3.org/2000/svg">
<path opacity="0.8" d="M414.847 78.8647C369.073 77.2723 325.443 62.4804 283.844 46.3C242.245 30.1197 201.014 12.1891 156.312 3.61532C127.572 -1.90533 94.7028 -2.68178 71.5499 12.7418C49.2647 27.5798 42.0664 53.1959 38.1945 76.963C35.2823 94.8476 33.5928 113.666 41.5537 130.413C47.0954 142.033 56.9298 151.804 63.7337 162.938C87.3993 201.675 70.669 249.446 45.0181 287.301C32.988 305.067 19.0318 321.971 9.74964 340.862C0.467433 359.753 -3.83183 381.395 4.29339 400.661C12.3463 419.744 31.5286 434.101 52.315 444.188C94.5319 464.659 144.276 470.515 192.784 473.871C300.16 481.221 408.115 478.036 515.774 474.851C555.618 473.667 595.639 472.476 634.832 466.297C656.598 462.869 679.074 457.434 694.878 444.314C714.934 427.653 719.911 399.451 706.467 378.559C683.919 343.527 621.58 334.822 605.816 297.223C597.145 276.529 606.052 253.473 618.661 234.279C645.699 193.107 691.032 156.983 693.418 109.916C695.062 77.5881 673.269 45.2209 639.572 29.9223C604.258 13.8736 555.283 15.9003 529.231 42.4244C502.403 69.7513 455.256 80.2662 414.847 78.8647Z" fill="white"/>
<g clip-path="url(#clip0_0_1)">
<path d="M575.841 406C618.258 331.025 536.901 292.627 526.429 371.799C525.898 361.582 525.336 351.2 521.94 341.548C516.782 321.526 488.754 307.017 475.367 327.285C468.29 339.844 477.675 357.461 469.536 369.361C464.403 339.411 420.884 346.437 425.467 376.488C428.907 390.925 444.172 399.327 456.357 405.858L575.841 406Z" fill="#F2F2F2"/>
<path d="M431.7 358.346C453.232 365.327 480.14 377.088 482.323 402.792C482.385 403.811 483.981 403.818 483.918 402.792C483.36 393.716 478.934 385.41 472.804 378.841C466.084 371.639 457.376 366.72 448.384 362.904C446.627 362.497 428.328 353.847 431.7 358.346Z" fill="white"/>
<path d="M486.099 320.75C501 345.614 508.09 374.375 506.452 403.31C506.392 404.335 507.988 404.331 508.047 403.31C509.317 380.567 505.264 357.842 496.209 336.938C495.192 335.067 486.988 315.365 486.099 320.75Z" fill="white"/>
<path d="M564.188 329.909C553.683 353.509 547.181 378.691 544.947 404.424C544.858 405.446 546.454 405.44 546.543 404.424C548.281 384.582 552.572 365.046 559.311 346.301C559.292 344.213 568.489 327.267 564.188 329.909V329.909Z" fill="white"/>
<path d="M379.377 404.71C391.519 383.248 368.23 372.256 365.232 394.92C365.08 391.995 364.919 389.023 363.947 386.26C362.471 380.529 354.447 376.376 350.615 382.178C348.589 385.773 351.276 390.815 348.946 394.222C347.477 385.648 335.019 387.66 336.331 396.262C337.315 400.395 341.685 402.8 345.173 404.67L379.377 404.71Z" fill="#F2F2F2"/>
<path d="M338.115 391.069C344.279 393.068 351.982 396.434 352.606 403.793C352.624 404.084 353.081 404.086 353.063 403.792C352.828 401.208 351.704 398.785 349.882 396.936C347.896 394.944 345.515 393.39 342.891 392.374C342.388 392.258 337.15 389.782 338.115 391.069Z" fill="white"/>
<path d="M353.687 380.307C357.953 387.424 359.983 395.657 359.513 403.94C359.497 404.234 359.953 404.233 359.97 403.94C360.334 397.43 359.173 390.925 356.581 384.941C356.29 384.405 353.942 378.765 353.687 380.307V380.307Z" fill="white"/>
<path d="M376.041 382.928C373.034 389.684 371.173 396.893 370.533 404.259C370.508 404.552 370.965 404.55 370.99 404.259C371.487 398.579 372.716 392.987 374.645 387.621C374.64 387.023 377.272 382.172 376.041 382.928Z" fill="white"/>
<path d="M301.547 138.803H125.622C125.457 138.803 125.299 138.737 125.182 138.621C125.065 138.504 125 138.346 125 138.182C125 138.017 125.065 137.859 125.182 137.742C125.299 137.626 125.457 137.561 125.622 137.561H301.547C301.712 137.561 301.87 137.626 301.986 137.742C302.103 137.859 302.169 138.017 302.169 138.182C302.169 138.346 302.103 138.504 301.986 138.621C301.87 138.737 301.712 138.803 301.547 138.803Z" fill="#3F3D56"/>
<path d="M265.367 148.12C271.203 148.12 275.935 143.392 275.935 137.56C275.935 131.728 271.203 127 265.367 127C259.53 127 254.799 131.728 254.799 137.56C254.799 143.392 259.53 148.12 265.367 148.12Z" fill="#19193F"/>
<path d="M301.547 178.559H125.622C125.457 178.559 125.299 178.493 125.182 178.377C125.065 178.26 125 178.102 125 177.938C125 177.773 125.065 177.615 125.182 177.498C125.299 177.382 125.457 177.316 125.622 177.316H301.547C301.712 177.316 301.87 177.382 301.986 177.498C302.103 177.615 302.169 177.773 302.169 177.938C302.169 178.102 302.103 178.26 301.986 178.377C301.87 178.493 301.712 178.559 301.547 178.559Z" fill="#3F3D56"/>
<path d="M167.147 187.876C172.984 187.876 177.715 183.148 177.715 177.316C177.715 171.484 172.984 166.756 167.147 166.756C161.311 166.756 156.579 171.484 156.579 177.316C156.579 183.148 161.311 187.876 167.147 187.876Z" fill="#19193F"/>
<path d="M301.547 218.315H125.622C125.457 218.315 125.299 218.249 125.182 218.133C125.065 218.016 125 217.858 125 217.693C125 217.529 125.065 217.371 125.182 217.254C125.299 217.138 125.457 217.072 125.622 217.072H301.547C301.712 217.072 301.87 217.138 301.986 217.254C302.103 217.371 302.169 217.529 302.169 217.693C302.169 217.858 302.103 218.016 301.986 218.133C301.87 218.249 301.712 218.315 301.547 218.315Z" fill="#3F3D56"/>
<path d="M208.797 227.632C214.634 227.632 219.365 222.904 219.365 217.072C219.365 211.24 214.634 206.512 208.797 206.512C202.961 206.512 198.229 211.24 198.229 217.072C198.229 222.904 202.961 227.632 208.797 227.632Z" fill="#19193F"/>
<path d="M382.09 224.63C382.308 224.926 382.502 225.238 382.672 225.565L415.436 229.246L420.202 222.813L430.858 228.73L421.477 244.358L381.336 233.831C380.315 234.812 379.018 235.459 377.62 235.686C376.221 235.914 374.787 235.71 373.507 235.102C372.227 234.495 371.162 233.513 370.455 232.286C369.747 231.059 369.43 229.646 369.545 228.235C369.661 226.824 370.204 225.481 371.102 224.386C371.999 223.29 373.21 222.494 374.571 222.103C375.933 221.711 377.382 221.744 378.725 222.195C380.068 222.646 381.242 223.496 382.09 224.63Z" fill="#FFB8B8"/>
<path d="M428.53 234.327C428.266 234.211 428.02 234.058 427.8 233.872L414.631 222.787C414.315 222.52 414.057 222.191 413.874 221.82C413.692 221.449 413.588 221.044 413.57 220.631C413.552 220.218 413.62 219.806 413.769 219.42C413.919 219.034 414.147 218.684 414.439 218.391L426.389 206.401C426.89 205.893 427.558 205.583 428.27 205.526C428.982 205.469 429.69 205.67 430.266 206.092L439.303 212.65C439.867 213.059 440.27 213.653 440.443 214.327C440.616 215.002 440.547 215.716 440.25 216.346L432.432 232.863C432.099 233.566 431.506 234.112 430.777 234.385C430.049 234.658 429.243 234.637 428.53 234.327H428.53Z" fill="#19193F"/>
<path d="M479.892 391.101L472.027 393.239L460.03 363.944L471.637 360.788L479.892 391.101Z" fill="#FFB8B8"/>
<path d="M465.177 392.688L480.965 388.396L483.564 397.939L458.846 404.659L458.677 404.039C458.033 401.673 458.356 399.147 459.575 397.019C460.794 394.89 462.809 393.332 465.177 392.688Z" fill="#2F2E41"/>
<path d="M412.656 397.098L404.506 397.098L400.628 365.683L412.658 365.683L412.656 397.098Z" fill="#FFB8B8"/>
<path d="M398.041 394.771H414.403V404.66H388.787V404.018C388.787 401.565 389.762 399.213 391.497 397.479C393.233 395.745 395.587 394.771 398.041 394.771Z" fill="#2F2E41"/>
<path d="M436.481 184.898C442.858 178.526 442.858 168.195 436.481 161.823C430.104 155.45 419.766 155.45 413.389 161.823C407.012 168.195 407.012 178.526 413.389 184.898C419.766 191.27 430.104 191.27 436.481 184.898Z" fill="#FFB8B8"/>
<path d="M412.158 374.7H401.019C400.258 374.698 399.525 374.408 398.97 373.887C398.415 373.366 398.079 372.654 398.03 371.894C394.711 319.171 396.653 281.352 404.14 252.875C404.173 252.75 404.213 252.628 404.261 252.508L404.858 251.018C405.078 250.462 405.461 249.986 405.957 249.65C406.452 249.315 407.037 249.137 407.636 249.139H430.541C430.972 249.138 431.399 249.231 431.791 249.412C432.183 249.592 432.531 249.855 432.812 250.183L435.923 253.81C435.984 253.881 436.041 253.953 436.095 254.029C450.124 273.577 462.696 311.796 477.257 363.166C477.472 363.912 477.387 364.713 477.019 365.398C476.652 366.082 476.031 366.597 475.29 366.831L463.32 370.658C462.633 370.875 461.89 370.837 461.229 370.553C460.567 370.269 460.029 369.756 459.713 369.109L428.65 304.729C428.433 304.28 428.076 303.911 427.634 303.68C427.191 303.448 426.685 303.365 426.191 303.443C425.697 303.521 425.242 303.756 424.892 304.113C424.542 304.469 424.317 304.929 424.249 305.424L415.122 372.115C415.022 372.83 414.667 373.485 414.122 373.96C413.578 374.435 412.88 374.697 412.158 374.7Z" fill="#2F2E41"/>
<path d="M434.668 254.075C434.636 254.075 434.605 254.074 434.574 254.074L406.751 253.196C406.036 253.176 405.352 252.9 404.823 252.417C404.295 251.935 403.958 251.279 403.874 250.569C400.347 222.041 410.019 214.399 414.342 212.437C414.703 212.274 415.016 212.021 415.25 211.702C415.485 211.382 415.632 211.008 415.679 210.615L416.053 207.625C416.117 207.097 416.321 206.595 416.645 206.173C423.422 197.4 432.676 194.591 437.589 193.697C437.987 193.626 438.396 193.636 438.79 193.727C439.185 193.818 439.557 193.989 439.883 194.228C440.21 194.467 440.484 194.77 440.69 195.119C440.896 195.467 441.028 195.854 441.08 196.255L441.64 200.549C441.697 200.958 441.861 201.345 442.114 201.672C456.248 220.136 440.503 247.397 437.203 252.674C436.933 253.103 436.559 253.456 436.116 253.701C435.672 253.946 435.174 254.075 434.668 254.075Z" fill="#19193F"/>
<path d="M432.072 294.623C432.927 294.024 433.64 293.245 434.161 292.34C434.682 291.436 434.998 290.429 435.087 289.389C435.176 288.35 435.036 287.303 434.677 286.324C434.318 285.344 433.748 284.455 433.007 283.719L438.175 221.356L422.788 223.472L422.496 284.063C421.341 285.388 420.713 287.09 420.731 288.846C420.748 290.603 421.41 292.292 422.59 293.593C423.771 294.895 425.388 295.719 427.135 295.909C428.883 296.098 430.64 295.641 432.072 294.623H432.072Z" fill="#FFB8B8"/>
<path d="M439.181 230.337C438.893 230.337 438.606 230.295 438.33 230.213L421.811 225.359C421.414 225.242 421.046 225.044 420.729 224.778C420.412 224.512 420.154 224.183 419.971 223.812C419.789 223.441 419.685 223.036 419.666 222.623C419.648 222.21 419.716 221.797 419.865 221.412L425.978 205.631C426.233 204.964 426.72 204.412 427.349 204.074C427.977 203.736 428.707 203.635 429.404 203.79L440.317 206.16C440.998 206.308 441.606 206.69 442.036 207.238C442.466 207.786 442.691 208.468 442.672 209.164L442.164 227.428C442.143 228.205 441.819 228.943 441.262 229.486C440.705 230.029 439.959 230.334 439.181 230.337V230.337Z" fill="#19193F"/>
<path d="M576.945 405.912H340.099C339.934 405.912 339.776 405.847 339.659 405.73C339.543 405.614 339.477 405.456 339.477 405.291C339.477 405.126 339.543 404.968 339.659 404.852C339.776 404.735 339.934 404.67 340.099 404.67H576.945C577.11 404.67 577.268 404.735 577.385 404.852C577.501 404.968 577.567 405.126 577.567 405.291C577.567 405.456 577.501 405.614 577.385 405.73C577.268 405.847 577.11 405.912 576.945 405.912Z" fill="#3F3D56"/>
<path d="M442.901 163.213C441.688 159.539 440.793 155.768 440.225 151.942C440.047 149.714 440.618 147.317 442.242 145.779C445.28 142.903 450.443 144.273 453.621 146.995C458.213 150.93 460.504 156.977 461.369 162.96C462.235 168.943 461.854 175.027 462.062 181.068C462.271 187.11 463.135 193.322 466.218 198.523C469.3 203.725 475.02 207.717 481.053 207.275C483.488 207.143 485.801 206.164 487.589 204.507C488.467 203.672 489.131 202.64 489.528 201.496C489.924 200.351 490.039 199.129 489.865 197.931C492.949 203.449 491.385 210.927 486.786 215.264C482.186 219.602 475.111 220.828 469.065 218.976C463.018 217.124 458.041 212.481 455.068 206.902C452.096 201.324 451.007 194.88 451.164 188.563C451.286 183.711 452.111 178.82 451.29 174.037C450.47 169.253 447.474 164.396 442.75 163.27L442.901 163.213Z" fill="#2F2E41"/>
<path d="M421.687 169.502C420.881 172.19 417.8 173.848 415.029 173.393C412.258 172.939 409.979 170.658 409.136 167.981C408.375 165.246 408.687 162.324 410.008 159.812C410.736 158.306 411.754 156.958 413.004 155.845C414.254 154.733 415.711 153.878 417.292 153.328C418.882 152.802 420.575 152.665 422.229 152.929C423.883 153.193 425.45 153.851 426.796 154.846C426.94 154.242 427.242 153.687 427.671 153.238C428.1 152.79 428.641 152.464 429.239 152.293C430.442 151.969 431.712 151.988 432.904 152.347C436.342 153.326 439.32 155.492 441.31 158.458C443.275 161.416 444.575 164.764 445.12 168.272C446.058 173.532 445.712 179.281 442.756 183.733C439.799 188.185 433.75 190.814 428.843 188.691C428.537 187.128 429.261 185.554 430.1 184.2C430.939 182.845 431.933 181.526 432.255 179.966C432.577 178.406 431.959 176.498 430.449 175.988C429.161 175.553 427.788 176.258 426.431 176.343C425.66 176.391 424.89 176.236 424.198 175.893C423.506 175.55 422.917 175.032 422.489 174.389C422.061 173.747 421.81 173.004 421.76 172.234C421.71 171.464 421.864 170.694 422.206 170.002L421.687 169.502Z" fill="#2F2E41"/>
</g>
<defs>
<clipPath id="clip0_0_1">
<rect width="463" height="279" fill="white" transform="translate(125 127)"/>
</clipPath>
</defs>
</svg>
