<svg width="362" height="431" viewBox="0 0 362 431" fill="none" xmlns="http://www.w3.org/2000/svg">
<g clip-path="url(#clip0_12_1093)">
<path d="M350.3 158.855H11.3901C8.37031 158.852 5.47521 157.626 3.33992 155.446C1.20462 153.266 0.00348686 150.311 0 147.229V11.6266C0.00348686 8.54415 1.20462 5.58894 3.33992 3.40929C5.47521 1.22964 8.37031 0.00355928 11.3901 0H350.3C353.32 0.00355928 356.215 1.22964 358.35 3.40929C360.485 5.58894 361.686 8.54415 361.69 11.6266V147.229C361.686 150.311 360.485 153.266 358.35 155.446C356.215 157.625 353.32 158.852 350.3 158.855Z" fill="#F2F2F2"/>
<path d="M271.258 151.44H65.1867C49.8305 151.422 35.1083 145.188 24.2498 134.104C13.3913 123.02 7.28344 107.992 7.26611 92.3164V66.5454C7.28342 50.8702 13.3913 35.8421 24.2498 24.7581C35.1082 13.674 49.8305 7.43917 65.1867 7.42139H296.505C311.861 7.43917 326.583 13.674 337.442 24.7581C348.3 35.8421 354.408 50.8702 354.426 66.5454C354.401 89.053 345.63 110.632 330.039 126.547C314.447 142.462 293.308 151.415 271.258 151.44Z" fill="white"/>
<path d="M218.1 46.2397H81.8843C81.1052 46.2397 80.358 45.9238 79.8071 45.3615C79.2563 44.7991 78.9468 44.0364 78.9468 43.2412C78.9468 42.4459 79.2563 41.6833 79.8071 41.1209C80.358 40.5586 81.1052 40.2427 81.8843 40.2427H218.1C218.879 40.2427 219.626 40.5586 220.177 41.1209C220.728 41.6833 221.038 42.4459 221.038 43.2412C221.038 44.0364 220.728 44.7991 220.177 45.3615C219.626 45.9238 218.879 46.2397 218.1 46.2397Z" fill="#E6E6E6"/>
<path d="M287.055 78.2319H81.8843C81.1052 78.2319 80.358 77.916 79.8071 77.3536C79.2563 76.7913 78.9468 76.0286 78.9468 75.2334C78.9468 74.4381 79.2563 73.6754 79.8071 73.1131C80.358 72.5508 81.1052 72.2349 81.8843 72.2349H287.055C287.834 72.2349 288.581 72.5508 289.132 73.1131C289.683 73.6754 289.993 74.4381 289.993 75.2334C289.993 76.0286 289.683 76.7913 289.132 77.3536C288.581 77.916 287.834 78.2319 287.055 78.2319Z" fill="#E6E6E6"/>
<path d="M287.055 110.224H81.8843C81.1052 110.224 80.358 109.908 79.8071 109.346C79.2563 108.783 78.9468 108.021 78.9468 107.226C78.9468 106.43 79.2563 105.668 79.8071 105.105C80.358 104.543 81.1052 104.227 81.8843 104.227H287.055C287.834 104.227 288.581 104.543 289.132 105.105C289.683 105.668 289.993 106.43 289.993 107.226C289.993 108.021 289.683 108.783 289.132 109.346C288.581 109.908 287.834 110.224 287.055 110.224Z" fill="#E6E6E6"/>
<path d="M287.055 110.224H81.8843C81.1052 110.224 80.358 109.908 79.8071 109.346C79.2563 108.783 78.9468 108.021 78.9468 107.226C78.9468 106.43 79.2563 105.668 79.8071 105.105C80.358 104.543 81.1052 104.227 81.8843 104.227H287.055C287.834 104.227 288.581 104.543 289.132 105.105C289.683 105.668 289.993 106.43 289.993 107.226C289.993 108.021 289.683 108.783 289.132 109.346C288.581 109.908 287.834 110.224 287.055 110.224Z" fill="#E6E6E6"/>
<path d="M203.726 81.9037C203.759 82.8069 203.985 83.6918 204.389 84.4961C204.793 85.3004 205.364 86.0045 206.064 86.5589C206.763 87.1132 207.573 87.5042 208.436 87.7045C209.3 87.9047 210.196 87.9093 211.061 87.7178L222.264 106.477L227.031 96.1498L215.662 79.9188C215.251 78.4562 214.328 77.1985 213.069 76.384C211.81 75.5694 210.302 75.2547 208.83 75.4993C207.359 75.744 206.027 76.5311 205.086 77.7115C204.145 78.8918 203.661 80.3835 203.726 81.9037H203.726Z" fill="#FFB6B6"/>
<path d="M287.794 135.667L249.188 114.292L237.011 102.63C237.011 102.63 231.717 101.183 233.665 99.4258C235.614 97.6688 230.061 95.9743 230.061 95.9743L223.524 89.7139L214.235 96.4229L216.924 100.677C216.924 100.677 216.739 107.719 220.518 106.364C224.297 105.009 223.353 110.849 223.353 110.849L245.91 146.543L287.794 135.667Z" fill="#3F3D56"/>
<path d="M173.833 115.528C194.659 115.528 211.542 98.2945 211.542 77.0359C211.542 55.7774 194.659 38.5439 173.833 38.5439C153.007 38.5439 136.125 55.7774 136.125 77.0359C136.125 98.2945 153.007 115.528 173.833 115.528Z" fill="#42779D"/>
<path d="M287.913 416.035H280.072L276.341 385.164H287.913V416.035Z" fill="#FFB6B6"/>
<path d="M292.051 429.901H286.429L285.425 424.483L282.854 429.901H267.941C267.227 429.902 266.53 429.668 265.955 429.236C265.379 428.803 264.953 428.195 264.741 427.498C264.528 426.801 264.539 426.053 264.772 425.364C265.005 424.674 265.448 424.078 266.036 423.664L277.946 415.268V409.79L290.472 410.553L292.051 429.901Z" fill="#2F2E41"/>
<path d="M225.204 416.035H217.363L213.632 385.164H225.204V416.035Z" fill="#FFB6B6"/>
<path d="M229.342 429.901H223.719L222.716 424.483L220.145 429.901H205.232C204.517 429.902 203.821 429.668 203.245 429.236C202.669 428.803 202.244 428.195 202.031 427.498C201.819 426.801 201.83 426.053 202.063 425.364C202.296 424.674 202.739 424.078 203.327 423.664L215.236 415.268V409.79L227.763 410.553L229.342 429.901Z" fill="#2F2E41"/>
<path d="M279.593 182.563H240.02V228.552H279.593V182.563Z" fill="#FFB6B6"/>
<path d="M240.933 205.247L234.236 213.326L222.668 238.185L193.52 308.977L187.356 323.949L192.334 350.415C192.334 350.415 193.14 369.061 193.14 372.113C193.14 378.328 198.232 381.771 198.232 381.771L201.968 401.633L238.193 400.079C238.193 400.079 236.929 378.186 229.342 372.664C221.755 367.141 218.267 338.36 218.267 338.36L214.144 325.591L254.327 276.969L254.587 293.965L254.712 302.191C254.712 302.191 248.828 355.696 255.687 366.08C262.546 376.463 255.827 375.242 255.827 375.242L256.154 396.661L299.076 396.972L289.607 335.305C289.607 335.305 284.799 331.429 287.371 327.534C289.944 323.638 284.878 318.867 284.878 318.867L287.15 270.725C287.15 270.725 284.634 262.409 287.593 261.328C290.552 260.248 287.982 253.097 287.982 253.097L288.422 243.779L279.594 214.88L240.933 205.247Z" fill="#2F2E41"/>
<path d="M280.202 182.563L284.464 169.512L287.508 165.162L288.726 152.732C288.726 119.173 281.393 124.761 281.393 124.761L277.158 112.958L257.676 112.336L245.195 124.455L234.845 128.184L230.792 149.681L238.193 172.619L240.02 185.049C236.535 191.615 236.83 188.509 239.715 193.439L274.114 203.072C286.291 207.422 286.291 196.236 283.849 193.439C281.407 190.642 280.202 182.563 280.202 182.563Z" fill="#3F3D56"/>
<path d="M264.9 108.165C274.875 108.165 282.961 99.9106 282.961 89.7286C282.961 79.5466 274.875 71.2925 264.9 71.2925C254.926 71.2925 246.839 79.5466 246.839 89.7286C246.839 99.9106 254.926 108.165 264.9 108.165Z" fill="#FFB6B6"/>
<path d="M289.012 114.338C289.182 114.631 289.285 114.959 289.314 115.299C289.342 115.638 289.295 115.98 289.177 116.298C289.058 116.617 288.87 116.903 288.628 117.138C288.385 117.372 288.094 117.547 287.776 117.65C285.353 118.471 283.861 120.863 282.12 122.777C280.385 124.685 277.59 126.27 275.374 124.971C273.164 123.678 273.012 120.378 271.161 118.589C269.359 116.848 266.363 117.06 264.245 118.383L264.181 118.423C263.816 118.667 263.388 118.795 262.952 118.793C262.515 118.791 262.088 118.659 261.725 118.412C261.361 118.165 261.077 117.815 260.906 117.405C260.735 116.995 260.686 116.542 260.765 116.104C261.507 112.074 262.249 108.044 262.991 104.015C261.042 108.807 258.213 113.174 254.656 116.88C253.676 118.034 252.434 118.926 251.039 119.477C249.773 119.887 248.543 118.551 247.313 118.794C250.37 116.065 260.647 98.5771 258.808 86.8871C256.647 87.1357 254.485 87.3843 252.324 87.6329C252.09 86.5888 251.59 85.6262 250.875 84.8425C250.962 85.8587 250.836 86.8821 250.503 87.8442C249.602 87.9499 248.695 88.0493 247.794 88.1549C246.54 88.2979 245.176 88.4222 244.099 87.751C242.303 86.6324 242.248 83.9849 242.759 81.8967C244.257 75.8249 248.799 70.7474 254.357 68.0875C259.916 65.4338 261.56 71.344 267.417 69.4548C278.984 65.726 287.849 72.1023 290.972 83.9352C293.596 93.8601 291.691 104.394 289.012 114.338Z" fill="#2F2E41"/>
<path d="M339.013 430.303H316.898L316.803 430.127C316.52 429.603 316.247 429.049 315.992 428.479C313.714 423.5 312.751 417.807 311.902 412.783L311.262 408.997C311.184 408.538 311.243 408.067 311.429 407.642C311.616 407.218 311.923 406.86 312.31 406.614C312.697 406.368 313.147 406.246 313.603 406.263C314.058 406.28 314.499 406.436 314.867 406.71C318.228 409.206 321.59 411.7 324.954 414.192C326.227 415.138 327.682 416.232 329.075 417.416C329.209 416.749 329.35 416.081 329.49 415.422C329.587 414.967 329.815 414.552 330.145 414.23C330.474 413.908 330.89 413.693 331.34 413.614C331.789 413.535 332.251 413.594 332.668 413.784C333.084 413.975 333.435 414.288 333.676 414.683L336.263 418.927C338.151 422.026 339.816 425.08 339.477 428.373C339.479 428.413 339.476 428.453 339.468 428.493C339.4 429.034 339.274 429.565 339.093 430.078L339.013 430.303Z" fill="#F0F0F0"/>
<path d="M361.211 430.791L151.057 431C150.847 430.999 150.647 430.913 150.499 430.761C150.351 430.609 150.268 430.404 150.268 430.19C150.268 429.976 150.351 429.77 150.499 429.619C150.647 429.467 150.847 429.381 151.057 429.38L361.211 429.171C361.42 429.172 361.621 429.258 361.769 429.41C361.917 429.561 362 429.767 362 429.981C362 430.195 361.917 430.4 361.769 430.552C361.621 430.704 361.42 430.79 361.211 430.791Z" fill="#CACACA"/>
<path d="M170.405 128.844L147.289 108.917C146.499 108.234 146.007 107.26 145.92 106.207C145.833 105.154 146.158 104.109 146.825 103.301L151.08 98.1579C151.749 97.3513 152.704 96.8485 153.735 96.7597C154.767 96.6709 155.79 97.0035 156.582 97.6844L179.698 117.611C180.488 118.294 180.981 119.269 181.068 120.321C181.155 121.374 180.829 122.42 180.162 123.228L175.907 128.37C175.239 129.177 174.284 129.68 173.252 129.768C172.221 129.857 171.197 129.525 170.405 128.844Z" fill="#3F3D56"/>
<path d="M148.502 103.715C148.143 104.151 147.967 104.714 148.014 105.281C148.061 105.849 148.327 106.374 148.752 106.742L171.868 126.669C172.295 127.035 172.847 127.215 173.403 127.167C173.958 127.119 174.473 126.848 174.833 126.413L179.088 121.271C179.447 120.835 179.623 120.272 179.576 119.705C179.529 119.137 179.264 118.612 178.838 118.244L155.722 98.3173C155.295 97.9505 154.744 97.7713 154.188 97.8191C153.632 97.867 153.117 98.1379 152.757 98.5725L148.502 103.715Z" fill="white"/>
<path d="M162.073 111.461C161.993 111.576 161.887 111.67 161.765 111.736C161.644 111.802 161.508 111.838 161.37 111.841L157.738 111.926C157.622 111.929 157.506 111.908 157.397 111.865C157.288 111.822 157.188 111.757 157.104 111.675C157.02 111.593 156.952 111.494 156.905 111.385C156.858 111.276 156.832 111.159 156.829 111.04C156.827 110.921 156.847 110.802 156.889 110.691C156.931 110.58 156.995 110.479 157.075 110.392C157.156 110.306 157.252 110.237 157.359 110.189C157.466 110.141 157.581 110.115 157.697 110.112L160.074 110.056L157.734 103.754C157.651 103.529 157.659 103.279 157.755 103.061C157.852 102.842 158.03 102.671 158.25 102.586C158.471 102.501 158.715 102.508 158.929 102.606C159.144 102.705 159.312 102.886 159.396 103.111L162.181 110.612C162.231 110.748 162.249 110.894 162.233 111.038C162.216 111.182 162.166 111.32 162.087 111.441L162.073 111.461Z" fill="#42779D"/>
<path d="M162.539 113.045C163.415 113.176 164.252 113.502 164.991 114C165.731 114.497 166.354 115.154 166.818 115.924C167.282 116.693 167.574 117.558 167.675 118.456C167.777 119.354 167.684 120.263 167.403 121.121L184.454 134.528L173.878 138.243L159.308 124.941C157.928 124.365 156.804 123.292 156.147 121.926C155.491 120.559 155.348 118.995 155.747 117.528C156.145 116.062 157.056 114.796 158.308 113.969C159.56 113.143 161.065 112.814 162.539 113.045L162.539 113.045Z" fill="#FFB6B6"/>
<path d="M251.308 119.674L207.653 147.073C207.653 147.073 190.052 140.425 193.492 137.348C196.932 134.27 185.981 132.19 185.981 132.19L173.884 123.882L166.864 132.209C166.864 132.209 168.143 145.736 170.319 143.394C172.495 141.052 175.749 147.45 175.749 147.45C175.749 147.45 176.71 154.594 182.905 152.796C189.1 150.999 205.724 169.843 205.724 169.843L259.451 149.389L251.308 119.674Z" fill="#3F3D56"/>
<path d="M172.507 92.4769C172.001 92.4769 171.502 92.3566 171.049 92.1255C170.597 91.8944 170.203 91.5589 169.899 91.1455L161.904 80.2634C161.647 79.9138 161.46 79.516 161.354 79.0927C161.248 78.6693 161.224 78.2288 161.285 77.7962C161.345 77.3636 161.489 76.9474 161.707 76.5714C161.925 76.1954 162.214 75.8669 162.556 75.6047C163.248 75.0752 164.117 74.8479 164.973 74.9727C165.397 75.0345 165.804 75.181 166.173 75.4036C166.541 75.6263 166.863 75.9208 167.12 76.2704L172.351 83.3892L185.785 62.8188C186.265 62.0844 187.011 61.5746 187.859 61.4016C188.707 61.2285 189.587 61.4063 190.306 61.8958C191.026 62.3854 191.525 63.1466 191.695 64.0121C191.864 64.8775 191.69 65.7763 191.211 66.5106L175.22 90.995C174.931 91.4378 174.541 91.8033 174.085 92.061C173.629 92.3187 173.119 92.4609 172.598 92.4758C172.567 92.4764 172.537 92.4769 172.507 92.4769Z" fill="white"/>
</g>
<defs>
<clipPath id="clip0_12_1093">
<rect width="362" height="431" fill="white"/>
</clipPath>
</defs>
</svg>
